G04 #@! TF.GenerationSoftware,KiCad,Pcbnew,9.0.4*
G04 #@! TF.CreationDate,2025-10-12T14:45:46+03:00*
G04 #@! TF.ProjectId,test_work_1,74657374-5f77-46f7-926b-5f312e6b6963,rev?*
G04 #@! TF.SameCoordinates,Original*
G04 #@! TF.FileFunction,Soldermask,Bot*
G04 #@! TF.FilePolarity,Negative*
%FSLAX46Y46*%
G04 Gerber Fmt 4.6, Leading zero omitted, Abs format (unit mm)*
G04 Created by KiCad (PCBNEW 9.0.4) date 2025-10-12 14:45:46*
%MOMM*%
%LPD*%
G01*
G04 APERTURE LIST*
G04 APERTURE END LIST*
G36*
X152703199Y-104640142D02*
G01*
X152829978Y-104692655D01*
X152944075Y-104768893D01*
X153041107Y-104865925D01*
X153117345Y-104980022D01*
X153169858Y-105106801D01*
X153196629Y-105241388D01*
X153196629Y-105378612D01*
X153169858Y-105513199D01*
X153117345Y-105639978D01*
X153041107Y-105754075D01*
X152944075Y-105851107D01*
X152829978Y-105927345D01*
X152703199Y-105979858D01*
X152568612Y-106006629D01*
X152431388Y-106006629D01*
X152296801Y-105979858D01*
X152170022Y-105927345D01*
X152055925Y-105851107D01*
X151958893Y-105754075D01*
X151882655Y-105639978D01*
X151830142Y-105513199D01*
X151803371Y-105378612D01*
X151803371Y-105241388D01*
X151830142Y-105106801D01*
X151882655Y-104980022D01*
X151958893Y-104865925D01*
X152055925Y-104768893D01*
X152170022Y-104692655D01*
X152296801Y-104640142D01*
X152431388Y-104613371D01*
X152568612Y-104613371D01*
X152703199Y-104640142D01*
G37*
G36*
X146290000Y-103910000D02*
G01*
X144690000Y-103910000D01*
X144690000Y-102310000D01*
X146290000Y-102310000D01*
X146290000Y-103910000D01*
G37*
G36*
X130482228Y-102344448D02*
G01*
X130627117Y-102404463D01*
X130757515Y-102491592D01*
X130868408Y-102602485D01*
X130955537Y-102732883D01*
X131015552Y-102877772D01*
X131046148Y-103031586D01*
X131046148Y-103188414D01*
X131015552Y-103342228D01*
X130955537Y-103487117D01*
X130868408Y-103617515D01*
X130757515Y-103728408D01*
X130627117Y-103815537D01*
X130482228Y-103875552D01*
X130328414Y-103906148D01*
X130171586Y-103906148D01*
X130017772Y-103875552D01*
X129872883Y-103815537D01*
X129742485Y-103728408D01*
X129631592Y-103617515D01*
X129544463Y-103487117D01*
X129484448Y-103342228D01*
X129453852Y-103188414D01*
X129453852Y-103031586D01*
X129484448Y-102877772D01*
X129544463Y-102732883D01*
X129631592Y-102602485D01*
X129742485Y-102491592D01*
X129872883Y-102404463D01*
X130017772Y-102344448D01*
X130171586Y-102313852D01*
X130328414Y-102313852D01*
X130482228Y-102344448D01*
G37*
G36*
X159232228Y-101984448D02*
G01*
X159377117Y-102044463D01*
X159507515Y-102131592D01*
X159618408Y-102242485D01*
X159705537Y-102372883D01*
X159765552Y-102517772D01*
X159796148Y-102671586D01*
X159796148Y-102828414D01*
X159765552Y-102982228D01*
X159705537Y-103127117D01*
X159618408Y-103257515D01*
X159507515Y-103368408D01*
X159377117Y-103455537D01*
X159232228Y-103515552D01*
X159078414Y-103546148D01*
X158921586Y-103546148D01*
X158767772Y-103515552D01*
X158622883Y-103455537D01*
X158492485Y-103368408D01*
X158381592Y-103257515D01*
X158294463Y-103127117D01*
X158234448Y-102982228D01*
X158203852Y-102828414D01*
X158203852Y-102671586D01*
X158234448Y-102517772D01*
X158294463Y-102372883D01*
X158381592Y-102242485D01*
X158492485Y-102131592D01*
X158622883Y-102044463D01*
X158767772Y-101984448D01*
X158921586Y-101953852D01*
X159078414Y-101953852D01*
X159232228Y-101984448D01*
G37*
G36*
X166540285Y-101293060D02*
G01*
X166721397Y-101368079D01*
X166884393Y-101476990D01*
X167023010Y-101615607D01*
X167131921Y-101778603D01*
X167206940Y-101959715D01*
X167245185Y-102151983D01*
X167245185Y-102348017D01*
X167206940Y-102540285D01*
X167131921Y-102721397D01*
X167023010Y-102884393D01*
X166884393Y-103023010D01*
X166721397Y-103131921D01*
X166540285Y-103206940D01*
X166348017Y-103245185D01*
X166151983Y-103245185D01*
X165959715Y-103206940D01*
X165778603Y-103131921D01*
X165615607Y-103023010D01*
X165476990Y-102884393D01*
X165368079Y-102721397D01*
X165293060Y-102540285D01*
X165254815Y-102348017D01*
X165254815Y-102151983D01*
X165293060Y-101959715D01*
X165368079Y-101778603D01*
X165476990Y-101615607D01*
X165615607Y-101476990D01*
X165778603Y-101368079D01*
X165959715Y-101293060D01*
X166151983Y-101254815D01*
X166348017Y-101254815D01*
X166540285Y-101293060D01*
G37*
G36*
X173040285Y-101293060D02*
G01*
X173221397Y-101368079D01*
X173384393Y-101476990D01*
X173523010Y-101615607D01*
X173631921Y-101778603D01*
X173706940Y-101959715D01*
X173745185Y-102151983D01*
X173745185Y-102348017D01*
X173706940Y-102540285D01*
X173631921Y-102721397D01*
X173523010Y-102884393D01*
X173384393Y-103023010D01*
X173221397Y-103131921D01*
X173040285Y-103206940D01*
X172848017Y-103245185D01*
X172651983Y-103245185D01*
X172459715Y-103206940D01*
X172278603Y-103131921D01*
X172115607Y-103023010D01*
X171976990Y-102884393D01*
X171868079Y-102721397D01*
X171793060Y-102540285D01*
X171754815Y-102348017D01*
X171754815Y-102151983D01*
X171793060Y-101959715D01*
X171868079Y-101778603D01*
X171976990Y-101615607D01*
X172115607Y-101476990D01*
X172278603Y-101368079D01*
X172459715Y-101293060D01*
X172651983Y-101254815D01*
X172848017Y-101254815D01*
X173040285Y-101293060D01*
G37*
G36*
X130482228Y-99804448D02*
G01*
X130627117Y-99864463D01*
X130757515Y-99951592D01*
X130868408Y-100062485D01*
X130955537Y-100192883D01*
X131015552Y-100337772D01*
X131046148Y-100491586D01*
X131046148Y-100648414D01*
X131015552Y-100802228D01*
X130955537Y-100947117D01*
X130868408Y-101077515D01*
X130757515Y-101188408D01*
X130627117Y-101275537D01*
X130482228Y-101335552D01*
X130328414Y-101366148D01*
X130171586Y-101366148D01*
X130017772Y-101335552D01*
X129872883Y-101275537D01*
X129742485Y-101188408D01*
X129631592Y-101077515D01*
X129544463Y-100947117D01*
X129484448Y-100802228D01*
X129453852Y-100648414D01*
X129453852Y-100491586D01*
X129484448Y-100337772D01*
X129544463Y-100192883D01*
X129631592Y-100062485D01*
X129742485Y-99951592D01*
X129872883Y-99864463D01*
X130017772Y-99804448D01*
X130171586Y-99773852D01*
X130328414Y-99773852D01*
X130482228Y-99804448D01*
G37*
G36*
X145722228Y-99804448D02*
G01*
X145867117Y-99864463D01*
X145997515Y-99951592D01*
X146108408Y-100062485D01*
X146195537Y-100192883D01*
X146255552Y-100337772D01*
X146286148Y-100491586D01*
X146286148Y-100648414D01*
X146255552Y-100802228D01*
X146195537Y-100947117D01*
X146108408Y-101077515D01*
X145997515Y-101188408D01*
X145867117Y-101275537D01*
X145722228Y-101335552D01*
X145568414Y-101366148D01*
X145411586Y-101366148D01*
X145257772Y-101335552D01*
X145112883Y-101275537D01*
X144982485Y-101188408D01*
X144871592Y-101077515D01*
X144784463Y-100947117D01*
X144724448Y-100802228D01*
X144693852Y-100648414D01*
X144693852Y-100491586D01*
X144724448Y-100337772D01*
X144784463Y-100192883D01*
X144871592Y-100062485D01*
X144982485Y-99951592D01*
X145112883Y-99864463D01*
X145257772Y-99804448D01*
X145411586Y-99773852D01*
X145568414Y-99773852D01*
X145722228Y-99804448D01*
G37*
G36*
X130482228Y-97264448D02*
G01*
X130627117Y-97324463D01*
X130757515Y-97411592D01*
X130868408Y-97522485D01*
X130955537Y-97652883D01*
X131015552Y-97797772D01*
X131046148Y-97951586D01*
X131046148Y-98108414D01*
X131015552Y-98262228D01*
X130955537Y-98407117D01*
X130868408Y-98537515D01*
X130757515Y-98648408D01*
X130627117Y-98735537D01*
X130482228Y-98795552D01*
X130328414Y-98826148D01*
X130171586Y-98826148D01*
X130017772Y-98795552D01*
X129872883Y-98735537D01*
X129742485Y-98648408D01*
X129631592Y-98537515D01*
X129544463Y-98407117D01*
X129484448Y-98262228D01*
X129453852Y-98108414D01*
X129453852Y-97951586D01*
X129484448Y-97797772D01*
X129544463Y-97652883D01*
X129631592Y-97522485D01*
X129742485Y-97411592D01*
X129872883Y-97324463D01*
X130017772Y-97264448D01*
X130171586Y-97233852D01*
X130328414Y-97233852D01*
X130482228Y-97264448D01*
G37*
G36*
X145722228Y-97264448D02*
G01*
X145867117Y-97324463D01*
X145997515Y-97411592D01*
X146108408Y-97522485D01*
X146195537Y-97652883D01*
X146255552Y-97797772D01*
X146286148Y-97951586D01*
X146286148Y-98108414D01*
X146255552Y-98262228D01*
X146195537Y-98407117D01*
X146108408Y-98537515D01*
X145997515Y-98648408D01*
X145867117Y-98735537D01*
X145722228Y-98795552D01*
X145568414Y-98826148D01*
X145411586Y-98826148D01*
X145257772Y-98795552D01*
X145112883Y-98735537D01*
X144982485Y-98648408D01*
X144871592Y-98537515D01*
X144784463Y-98407117D01*
X144724448Y-98262228D01*
X144693852Y-98108414D01*
X144693852Y-97951586D01*
X144724448Y-97797772D01*
X144784463Y-97652883D01*
X144871592Y-97522485D01*
X144982485Y-97411592D01*
X145112883Y-97324463D01*
X145257772Y-97264448D01*
X145411586Y-97233852D01*
X145568414Y-97233852D01*
X145722228Y-97264448D01*
G37*
G36*
X166540285Y-96793060D02*
G01*
X166721397Y-96868079D01*
X166884393Y-96976990D01*
X167023010Y-97115607D01*
X167131921Y-97278603D01*
X167206940Y-97459715D01*
X167245185Y-97651983D01*
X167245185Y-97848017D01*
X167206940Y-98040285D01*
X167131921Y-98221397D01*
X167023010Y-98384393D01*
X166884393Y-98523010D01*
X166721397Y-98631921D01*
X166540285Y-98706940D01*
X166348017Y-98745185D01*
X166151983Y-98745185D01*
X165959715Y-98706940D01*
X165778603Y-98631921D01*
X165615607Y-98523010D01*
X165476990Y-98384393D01*
X165368079Y-98221397D01*
X165293060Y-98040285D01*
X165254815Y-97848017D01*
X165254815Y-97651983D01*
X165293060Y-97459715D01*
X165368079Y-97278603D01*
X165476990Y-97115607D01*
X165615607Y-96976990D01*
X165778603Y-96868079D01*
X165959715Y-96793060D01*
X166151983Y-96754815D01*
X166348017Y-96754815D01*
X166540285Y-96793060D01*
G37*
G36*
X173040285Y-96793060D02*
G01*
X173221397Y-96868079D01*
X173384393Y-96976990D01*
X173523010Y-97115607D01*
X173631921Y-97278603D01*
X173706940Y-97459715D01*
X173745185Y-97651983D01*
X173745185Y-97848017D01*
X173706940Y-98040285D01*
X173631921Y-98221397D01*
X173523010Y-98384393D01*
X173384393Y-98523010D01*
X173221397Y-98631921D01*
X173040285Y-98706940D01*
X172848017Y-98745185D01*
X172651983Y-98745185D01*
X172459715Y-98706940D01*
X172278603Y-98631921D01*
X172115607Y-98523010D01*
X171976990Y-98384393D01*
X171868079Y-98221397D01*
X171793060Y-98040285D01*
X171754815Y-97848017D01*
X171754815Y-97651983D01*
X171793060Y-97459715D01*
X171868079Y-97278603D01*
X171976990Y-97115607D01*
X172115607Y-96976990D01*
X172278603Y-96868079D01*
X172459715Y-96793060D01*
X172651983Y-96754815D01*
X172848017Y-96754815D01*
X173040285Y-96793060D01*
G37*
G36*
X159232228Y-96984448D02*
G01*
X159377117Y-97044463D01*
X159507515Y-97131592D01*
X159618408Y-97242485D01*
X159705537Y-97372883D01*
X159765552Y-97517772D01*
X159796148Y-97671586D01*
X159796148Y-97828414D01*
X159765552Y-97982228D01*
X159705537Y-98127117D01*
X159618408Y-98257515D01*
X159507515Y-98368408D01*
X159377117Y-98455537D01*
X159232228Y-98515552D01*
X159078414Y-98546148D01*
X158921586Y-98546148D01*
X158767772Y-98515552D01*
X158622883Y-98455537D01*
X158492485Y-98368408D01*
X158381592Y-98257515D01*
X158294463Y-98127117D01*
X158234448Y-97982228D01*
X158203852Y-97828414D01*
X158203852Y-97671586D01*
X158234448Y-97517772D01*
X158294463Y-97372883D01*
X158381592Y-97242485D01*
X158492485Y-97131592D01*
X158622883Y-97044463D01*
X158767772Y-96984448D01*
X158921586Y-96953852D01*
X159078414Y-96953852D01*
X159232228Y-96984448D01*
G37*
G36*
X152703199Y-97020142D02*
G01*
X152829978Y-97072655D01*
X152944075Y-97148893D01*
X153041107Y-97245925D01*
X153117345Y-97360022D01*
X153169858Y-97486801D01*
X153196629Y-97621388D01*
X153196629Y-97758612D01*
X153169858Y-97893199D01*
X153117345Y-98019978D01*
X153041107Y-98134075D01*
X152944075Y-98231107D01*
X152829978Y-98307345D01*
X152703199Y-98359858D01*
X152568612Y-98386629D01*
X152431388Y-98386629D01*
X152296801Y-98359858D01*
X152170022Y-98307345D01*
X152055925Y-98231107D01*
X151958893Y-98134075D01*
X151882655Y-98019978D01*
X151830142Y-97893199D01*
X151803371Y-97758612D01*
X151803371Y-97621388D01*
X151830142Y-97486801D01*
X151882655Y-97360022D01*
X151958893Y-97245925D01*
X152055925Y-97148893D01*
X152170022Y-97072655D01*
X152296801Y-97020142D01*
X152431388Y-96993371D01*
X152568612Y-96993371D01*
X152703199Y-97020142D01*
G37*
G36*
X130482228Y-94724448D02*
G01*
X130627117Y-94784463D01*
X130757515Y-94871592D01*
X130868408Y-94982485D01*
X130955537Y-95112883D01*
X131015552Y-95257772D01*
X131046148Y-95411586D01*
X131046148Y-95568414D01*
X131015552Y-95722228D01*
X130955537Y-95867117D01*
X130868408Y-95997515D01*
X130757515Y-96108408D01*
X130627117Y-96195537D01*
X130482228Y-96255552D01*
X130328414Y-96286148D01*
X130171586Y-96286148D01*
X130017772Y-96255552D01*
X129872883Y-96195537D01*
X129742485Y-96108408D01*
X129631592Y-95997515D01*
X129544463Y-95867117D01*
X129484448Y-95722228D01*
X129453852Y-95568414D01*
X129453852Y-95411586D01*
X129484448Y-95257772D01*
X129544463Y-95112883D01*
X129631592Y-94982485D01*
X129742485Y-94871592D01*
X129872883Y-94784463D01*
X130017772Y-94724448D01*
X130171586Y-94693852D01*
X130328414Y-94693852D01*
X130482228Y-94724448D01*
G37*
G36*
X145722228Y-94724448D02*
G01*
X145867117Y-94784463D01*
X145997515Y-94871592D01*
X146108408Y-94982485D01*
X146195537Y-95112883D01*
X146255552Y-95257772D01*
X146286148Y-95411586D01*
X146286148Y-95568414D01*
X146255552Y-95722228D01*
X146195537Y-95867117D01*
X146108408Y-95997515D01*
X145997515Y-96108408D01*
X145867117Y-96195537D01*
X145722228Y-96255552D01*
X145568414Y-96286148D01*
X145411586Y-96286148D01*
X145257772Y-96255552D01*
X145112883Y-96195537D01*
X144982485Y-96108408D01*
X144871592Y-95997515D01*
X144784463Y-95867117D01*
X144724448Y-95722228D01*
X144693852Y-95568414D01*
X144693852Y-95411586D01*
X144724448Y-95257772D01*
X144784463Y-95112883D01*
X144871592Y-94982485D01*
X144982485Y-94871592D01*
X145112883Y-94784463D01*
X145257772Y-94724448D01*
X145411586Y-94693852D01*
X145568414Y-94693852D01*
X145722228Y-94724448D01*
G37*
G36*
X152703199Y-93140142D02*
G01*
X152829978Y-93192655D01*
X152944075Y-93268893D01*
X153041107Y-93365925D01*
X153117345Y-93480022D01*
X153169858Y-93606801D01*
X153196629Y-93741388D01*
X153196629Y-93878612D01*
X153169858Y-94013199D01*
X153117345Y-94139978D01*
X153041107Y-94254075D01*
X152944075Y-94351107D01*
X152829978Y-94427345D01*
X152703199Y-94479858D01*
X152568612Y-94506629D01*
X152431388Y-94506629D01*
X152296801Y-94479858D01*
X152170022Y-94427345D01*
X152055925Y-94351107D01*
X151958893Y-94254075D01*
X151882655Y-94139978D01*
X151830142Y-94013199D01*
X151803371Y-93878612D01*
X151803371Y-93741388D01*
X151830142Y-93606801D01*
X151882655Y-93480022D01*
X151958893Y-93365925D01*
X152055925Y-93268893D01*
X152170022Y-93192655D01*
X152296801Y-93140142D01*
X152431388Y-93113371D01*
X152568612Y-93113371D01*
X152703199Y-93140142D01*
G37*
G36*
X130482228Y-92184448D02*
G01*
X130627117Y-92244463D01*
X130757515Y-92331592D01*
X130868408Y-92442485D01*
X130955537Y-92572883D01*
X131015552Y-92717772D01*
X131046148Y-92871586D01*
X131046148Y-93028414D01*
X131015552Y-93182228D01*
X130955537Y-93327117D01*
X130868408Y-93457515D01*
X130757515Y-93568408D01*
X130627117Y-93655537D01*
X130482228Y-93715552D01*
X130328414Y-93746148D01*
X130171586Y-93746148D01*
X130017772Y-93715552D01*
X129872883Y-93655537D01*
X129742485Y-93568408D01*
X129631592Y-93457515D01*
X129544463Y-93327117D01*
X129484448Y-93182228D01*
X129453852Y-93028414D01*
X129453852Y-92871586D01*
X129484448Y-92717772D01*
X129544463Y-92572883D01*
X129631592Y-92442485D01*
X129742485Y-92331592D01*
X129872883Y-92244463D01*
X130017772Y-92184448D01*
X130171586Y-92153852D01*
X130328414Y-92153852D01*
X130482228Y-92184448D01*
G37*
G36*
X145722228Y-92184448D02*
G01*
X145867117Y-92244463D01*
X145997515Y-92331592D01*
X146108408Y-92442485D01*
X146195537Y-92572883D01*
X146255552Y-92717772D01*
X146286148Y-92871586D01*
X146286148Y-93028414D01*
X146255552Y-93182228D01*
X146195537Y-93327117D01*
X146108408Y-93457515D01*
X145997515Y-93568408D01*
X145867117Y-93655537D01*
X145722228Y-93715552D01*
X145568414Y-93746148D01*
X145411586Y-93746148D01*
X145257772Y-93715552D01*
X145112883Y-93655537D01*
X144982485Y-93568408D01*
X144871592Y-93457515D01*
X144784463Y-93327117D01*
X144724448Y-93182228D01*
X144693852Y-93028414D01*
X144693852Y-92871586D01*
X144724448Y-92717772D01*
X144784463Y-92572883D01*
X144871592Y-92442485D01*
X144982485Y-92331592D01*
X145112883Y-92244463D01*
X145257772Y-92184448D01*
X145411586Y-92153852D01*
X145568414Y-92153852D01*
X145722228Y-92184448D01*
G37*
G36*
X159232228Y-90484448D02*
G01*
X159377117Y-90544463D01*
X159507515Y-90631592D01*
X159618408Y-90742485D01*
X159705537Y-90872883D01*
X159765552Y-91017772D01*
X159796148Y-91171586D01*
X159796148Y-91328414D01*
X159765552Y-91482228D01*
X159705537Y-91627117D01*
X159618408Y-91757515D01*
X159507515Y-91868408D01*
X159377117Y-91955537D01*
X159232228Y-92015552D01*
X159078414Y-92046148D01*
X158921586Y-92046148D01*
X158767772Y-92015552D01*
X158622883Y-91955537D01*
X158492485Y-91868408D01*
X158381592Y-91757515D01*
X158294463Y-91627117D01*
X158234448Y-91482228D01*
X158203852Y-91328414D01*
X158203852Y-91171586D01*
X158234448Y-91017772D01*
X158294463Y-90872883D01*
X158381592Y-90742485D01*
X158492485Y-90631592D01*
X158622883Y-90544463D01*
X158767772Y-90484448D01*
X158921586Y-90453852D01*
X159078414Y-90453852D01*
X159232228Y-90484448D01*
G37*
G36*
X166790285Y-90043060D02*
G01*
X166971397Y-90118079D01*
X167134393Y-90226990D01*
X167273010Y-90365607D01*
X167381921Y-90528603D01*
X167456940Y-90709715D01*
X167495185Y-90901983D01*
X167495185Y-91098017D01*
X167456940Y-91290285D01*
X167381921Y-91471397D01*
X167273010Y-91634393D01*
X167134393Y-91773010D01*
X166971397Y-91881921D01*
X166790285Y-91956940D01*
X166598017Y-91995185D01*
X166401983Y-91995185D01*
X166209715Y-91956940D01*
X166028603Y-91881921D01*
X165865607Y-91773010D01*
X165726990Y-91634393D01*
X165618079Y-91471397D01*
X165543060Y-91290285D01*
X165504815Y-91098017D01*
X165504815Y-90901983D01*
X165543060Y-90709715D01*
X165618079Y-90528603D01*
X165726990Y-90365607D01*
X165865607Y-90226990D01*
X166028603Y-90118079D01*
X166209715Y-90043060D01*
X166401983Y-90004815D01*
X166598017Y-90004815D01*
X166790285Y-90043060D01*
G37*
G36*
X173290285Y-90043060D02*
G01*
X173471397Y-90118079D01*
X173634393Y-90226990D01*
X173773010Y-90365607D01*
X173881921Y-90528603D01*
X173956940Y-90709715D01*
X173995185Y-90901983D01*
X173995185Y-91098017D01*
X173956940Y-91290285D01*
X173881921Y-91471397D01*
X173773010Y-91634393D01*
X173634393Y-91773010D01*
X173471397Y-91881921D01*
X173290285Y-91956940D01*
X173098017Y-91995185D01*
X172901983Y-91995185D01*
X172709715Y-91956940D01*
X172528603Y-91881921D01*
X172365607Y-91773010D01*
X172226990Y-91634393D01*
X172118079Y-91471397D01*
X172043060Y-91290285D01*
X172004815Y-91098017D01*
X172004815Y-90901983D01*
X172043060Y-90709715D01*
X172118079Y-90528603D01*
X172226990Y-90365607D01*
X172365607Y-90226990D01*
X172528603Y-90118079D01*
X172709715Y-90043060D01*
X172901983Y-90004815D01*
X173098017Y-90004815D01*
X173290285Y-90043060D01*
G37*
G36*
X130482228Y-89644448D02*
G01*
X130627117Y-89704463D01*
X130757515Y-89791592D01*
X130868408Y-89902485D01*
X130955537Y-90032883D01*
X131015552Y-90177772D01*
X131046148Y-90331586D01*
X131046148Y-90488414D01*
X131015552Y-90642228D01*
X130955537Y-90787117D01*
X130868408Y-90917515D01*
X130757515Y-91028408D01*
X130627117Y-91115537D01*
X130482228Y-91175552D01*
X130328414Y-91206148D01*
X130171586Y-91206148D01*
X130017772Y-91175552D01*
X129872883Y-91115537D01*
X129742485Y-91028408D01*
X129631592Y-90917515D01*
X129544463Y-90787117D01*
X129484448Y-90642228D01*
X129453852Y-90488414D01*
X129453852Y-90331586D01*
X129484448Y-90177772D01*
X129544463Y-90032883D01*
X129631592Y-89902485D01*
X129742485Y-89791592D01*
X129872883Y-89704463D01*
X130017772Y-89644448D01*
X130171586Y-89613852D01*
X130328414Y-89613852D01*
X130482228Y-89644448D01*
G37*
G36*
X145722228Y-89644448D02*
G01*
X145867117Y-89704463D01*
X145997515Y-89791592D01*
X146108408Y-89902485D01*
X146195537Y-90032883D01*
X146255552Y-90177772D01*
X146286148Y-90331586D01*
X146286148Y-90488414D01*
X146255552Y-90642228D01*
X146195537Y-90787117D01*
X146108408Y-90917515D01*
X145997515Y-91028408D01*
X145867117Y-91115537D01*
X145722228Y-91175552D01*
X145568414Y-91206148D01*
X145411586Y-91206148D01*
X145257772Y-91175552D01*
X145112883Y-91115537D01*
X144982485Y-91028408D01*
X144871592Y-90917515D01*
X144784463Y-90787117D01*
X144724448Y-90642228D01*
X144693852Y-90488414D01*
X144693852Y-90331586D01*
X144724448Y-90177772D01*
X144784463Y-90032883D01*
X144871592Y-89902485D01*
X144982485Y-89791592D01*
X145112883Y-89704463D01*
X145257772Y-89644448D01*
X145411586Y-89613852D01*
X145568414Y-89613852D01*
X145722228Y-89644448D01*
G37*
G36*
X130482228Y-87104448D02*
G01*
X130627117Y-87164463D01*
X130757515Y-87251592D01*
X130868408Y-87362485D01*
X130955537Y-87492883D01*
X131015552Y-87637772D01*
X131046148Y-87791586D01*
X131046148Y-87948414D01*
X131015552Y-88102228D01*
X130955537Y-88247117D01*
X130868408Y-88377515D01*
X130757515Y-88488408D01*
X130627117Y-88575537D01*
X130482228Y-88635552D01*
X130328414Y-88666148D01*
X130171586Y-88666148D01*
X130017772Y-88635552D01*
X129872883Y-88575537D01*
X129742485Y-88488408D01*
X129631592Y-88377515D01*
X129544463Y-88247117D01*
X129484448Y-88102228D01*
X129453852Y-87948414D01*
X129453852Y-87791586D01*
X129484448Y-87637772D01*
X129544463Y-87492883D01*
X129631592Y-87362485D01*
X129742485Y-87251592D01*
X129872883Y-87164463D01*
X130017772Y-87104448D01*
X130171586Y-87073852D01*
X130328414Y-87073852D01*
X130482228Y-87104448D01*
G37*
G36*
X145722228Y-87104448D02*
G01*
X145867117Y-87164463D01*
X145997515Y-87251592D01*
X146108408Y-87362485D01*
X146195537Y-87492883D01*
X146255552Y-87637772D01*
X146286148Y-87791586D01*
X146286148Y-87948414D01*
X146255552Y-88102228D01*
X146195537Y-88247117D01*
X146108408Y-88377515D01*
X145997515Y-88488408D01*
X145867117Y-88575537D01*
X145722228Y-88635552D01*
X145568414Y-88666148D01*
X145411586Y-88666148D01*
X145257772Y-88635552D01*
X145112883Y-88575537D01*
X144982485Y-88488408D01*
X144871592Y-88377515D01*
X144784463Y-88247117D01*
X144724448Y-88102228D01*
X144693852Y-87948414D01*
X144693852Y-87791586D01*
X144724448Y-87637772D01*
X144784463Y-87492883D01*
X144871592Y-87362485D01*
X144982485Y-87251592D01*
X145112883Y-87164463D01*
X145257772Y-87104448D01*
X145411586Y-87073852D01*
X145568414Y-87073852D01*
X145722228Y-87104448D01*
G37*
G36*
X166790285Y-85543060D02*
G01*
X166971397Y-85618079D01*
X167134393Y-85726990D01*
X167273010Y-85865607D01*
X167381921Y-86028603D01*
X167456940Y-86209715D01*
X167495185Y-86401983D01*
X167495185Y-86598017D01*
X167456940Y-86790285D01*
X167381921Y-86971397D01*
X167273010Y-87134393D01*
X167134393Y-87273010D01*
X166971397Y-87381921D01*
X166790285Y-87456940D01*
X166598017Y-87495185D01*
X166401983Y-87495185D01*
X166209715Y-87456940D01*
X166028603Y-87381921D01*
X165865607Y-87273010D01*
X165726990Y-87134393D01*
X165618079Y-86971397D01*
X165543060Y-86790285D01*
X165504815Y-86598017D01*
X165504815Y-86401983D01*
X165543060Y-86209715D01*
X165618079Y-86028603D01*
X165726990Y-85865607D01*
X165865607Y-85726990D01*
X166028603Y-85618079D01*
X166209715Y-85543060D01*
X166401983Y-85504815D01*
X166598017Y-85504815D01*
X166790285Y-85543060D01*
G37*
G36*
X173290285Y-85543060D02*
G01*
X173471397Y-85618079D01*
X173634393Y-85726990D01*
X173773010Y-85865607D01*
X173881921Y-86028603D01*
X173956940Y-86209715D01*
X173995185Y-86401983D01*
X173995185Y-86598017D01*
X173956940Y-86790285D01*
X173881921Y-86971397D01*
X173773010Y-87134393D01*
X173634393Y-87273010D01*
X173471397Y-87381921D01*
X173290285Y-87456940D01*
X173098017Y-87495185D01*
X172901983Y-87495185D01*
X172709715Y-87456940D01*
X172528603Y-87381921D01*
X172365607Y-87273010D01*
X172226990Y-87134393D01*
X172118079Y-86971397D01*
X172043060Y-86790285D01*
X172004815Y-86598017D01*
X172004815Y-86401983D01*
X172043060Y-86209715D01*
X172118079Y-86028603D01*
X172226990Y-85865607D01*
X172365607Y-85726990D01*
X172528603Y-85618079D01*
X172709715Y-85543060D01*
X172901983Y-85504815D01*
X173098017Y-85504815D01*
X173290285Y-85543060D01*
G37*
G36*
X159232228Y-85484448D02*
G01*
X159377117Y-85544463D01*
X159507515Y-85631592D01*
X159618408Y-85742485D01*
X159705537Y-85872883D01*
X159765552Y-86017772D01*
X159796148Y-86171586D01*
X159796148Y-86328414D01*
X159765552Y-86482228D01*
X159705537Y-86627117D01*
X159618408Y-86757515D01*
X159507515Y-86868408D01*
X159377117Y-86955537D01*
X159232228Y-87015552D01*
X159078414Y-87046148D01*
X158921586Y-87046148D01*
X158767772Y-87015552D01*
X158622883Y-86955537D01*
X158492485Y-86868408D01*
X158381592Y-86757515D01*
X158294463Y-86627117D01*
X158234448Y-86482228D01*
X158203852Y-86328414D01*
X158203852Y-86171586D01*
X158234448Y-86017772D01*
X158294463Y-85872883D01*
X158381592Y-85742485D01*
X158492485Y-85631592D01*
X158622883Y-85544463D01*
X158767772Y-85484448D01*
X158921586Y-85453852D01*
X159078414Y-85453852D01*
X159232228Y-85484448D01*
G37*
G36*
X152703199Y-85520142D02*
G01*
X152829978Y-85572655D01*
X152944075Y-85648893D01*
X153041107Y-85745925D01*
X153117345Y-85860022D01*
X153169858Y-85986801D01*
X153196629Y-86121388D01*
X153196629Y-86258612D01*
X153169858Y-86393199D01*
X153117345Y-86519978D01*
X153041107Y-86634075D01*
X152944075Y-86731107D01*
X152829978Y-86807345D01*
X152703199Y-86859858D01*
X152568612Y-86886629D01*
X152431388Y-86886629D01*
X152296801Y-86859858D01*
X152170022Y-86807345D01*
X152055925Y-86731107D01*
X151958893Y-86634075D01*
X151882655Y-86519978D01*
X151830142Y-86393199D01*
X151803371Y-86258612D01*
X151803371Y-86121388D01*
X151830142Y-85986801D01*
X151882655Y-85860022D01*
X151958893Y-85745925D01*
X152055925Y-85648893D01*
X152170022Y-85572655D01*
X152296801Y-85520142D01*
X152431388Y-85493371D01*
X152568612Y-85493371D01*
X152703199Y-85520142D01*
G37*
G36*
X130482228Y-84564448D02*
G01*
X130627117Y-84624463D01*
X130757515Y-84711592D01*
X130868408Y-84822485D01*
X130955537Y-84952883D01*
X131015552Y-85097772D01*
X131046148Y-85251586D01*
X131046148Y-85408414D01*
X131015552Y-85562228D01*
X130955537Y-85707117D01*
X130868408Y-85837515D01*
X130757515Y-85948408D01*
X130627117Y-86035537D01*
X130482228Y-86095552D01*
X130328414Y-86126148D01*
X130171586Y-86126148D01*
X130017772Y-86095552D01*
X129872883Y-86035537D01*
X129742485Y-85948408D01*
X129631592Y-85837515D01*
X129544463Y-85707117D01*
X129484448Y-85562228D01*
X129453852Y-85408414D01*
X129453852Y-85251586D01*
X129484448Y-85097772D01*
X129544463Y-84952883D01*
X129631592Y-84822485D01*
X129742485Y-84711592D01*
X129872883Y-84624463D01*
X130017772Y-84564448D01*
X130171586Y-84533852D01*
X130328414Y-84533852D01*
X130482228Y-84564448D01*
G37*
G36*
X145722228Y-84564448D02*
G01*
X145867117Y-84624463D01*
X145997515Y-84711592D01*
X146108408Y-84822485D01*
X146195537Y-84952883D01*
X146255552Y-85097772D01*
X146286148Y-85251586D01*
X146286148Y-85408414D01*
X146255552Y-85562228D01*
X146195537Y-85707117D01*
X146108408Y-85837515D01*
X145997515Y-85948408D01*
X145867117Y-86035537D01*
X145722228Y-86095552D01*
X145568414Y-86126148D01*
X145411586Y-86126148D01*
X145257772Y-86095552D01*
X145112883Y-86035537D01*
X144982485Y-85948408D01*
X144871592Y-85837515D01*
X144784463Y-85707117D01*
X144724448Y-85562228D01*
X144693852Y-85408414D01*
X144693852Y-85251586D01*
X144724448Y-85097772D01*
X144784463Y-84952883D01*
X144871592Y-84822485D01*
X144982485Y-84711592D01*
X145112883Y-84624463D01*
X145257772Y-84564448D01*
X145411586Y-84533852D01*
X145568414Y-84533852D01*
X145722228Y-84564448D01*
G37*
G36*
X130482228Y-82024448D02*
G01*
X130627117Y-82084463D01*
X130757515Y-82171592D01*
X130868408Y-82282485D01*
X130955537Y-82412883D01*
X131015552Y-82557772D01*
X131046148Y-82711586D01*
X131046148Y-82868414D01*
X131015552Y-83022228D01*
X130955537Y-83167117D01*
X130868408Y-83297515D01*
X130757515Y-83408408D01*
X130627117Y-83495537D01*
X130482228Y-83555552D01*
X130328414Y-83586148D01*
X130171586Y-83586148D01*
X130017772Y-83555552D01*
X129872883Y-83495537D01*
X129742485Y-83408408D01*
X129631592Y-83297515D01*
X129544463Y-83167117D01*
X129484448Y-83022228D01*
X129453852Y-82868414D01*
X129453852Y-82711586D01*
X129484448Y-82557772D01*
X129544463Y-82412883D01*
X129631592Y-82282485D01*
X129742485Y-82171592D01*
X129872883Y-82084463D01*
X130017772Y-82024448D01*
X130171586Y-81993852D01*
X130328414Y-81993852D01*
X130482228Y-82024448D01*
G37*
G36*
X145722228Y-82024448D02*
G01*
X145867117Y-82084463D01*
X145997515Y-82171592D01*
X146108408Y-82282485D01*
X146195537Y-82412883D01*
X146255552Y-82557772D01*
X146286148Y-82711586D01*
X146286148Y-82868414D01*
X146255552Y-83022228D01*
X146195537Y-83167117D01*
X146108408Y-83297515D01*
X145997515Y-83408408D01*
X145867117Y-83495537D01*
X145722228Y-83555552D01*
X145568414Y-83586148D01*
X145411586Y-83586148D01*
X145257772Y-83555552D01*
X145112883Y-83495537D01*
X144982485Y-83408408D01*
X144871592Y-83297515D01*
X144784463Y-83167117D01*
X144724448Y-83022228D01*
X144693852Y-82868414D01*
X144693852Y-82711586D01*
X144724448Y-82557772D01*
X144784463Y-82412883D01*
X144871592Y-82282485D01*
X144982485Y-82171592D01*
X145112883Y-82084463D01*
X145257772Y-82024448D01*
X145411586Y-81993852D01*
X145568414Y-81993852D01*
X145722228Y-82024448D01*
G37*
G36*
X152703199Y-80640142D02*
G01*
X152829978Y-80692655D01*
X152944075Y-80768893D01*
X153041107Y-80865925D01*
X153117345Y-80980022D01*
X153169858Y-81106801D01*
X153196629Y-81241388D01*
X153196629Y-81378612D01*
X153169858Y-81513199D01*
X153117345Y-81639978D01*
X153041107Y-81754075D01*
X152944075Y-81851107D01*
X152829978Y-81927345D01*
X152703199Y-81979858D01*
X152568612Y-82006629D01*
X152431388Y-82006629D01*
X152296801Y-81979858D01*
X152170022Y-81927345D01*
X152055925Y-81851107D01*
X151958893Y-81754075D01*
X151882655Y-81639978D01*
X151830142Y-81513199D01*
X151803371Y-81378612D01*
X151803371Y-81241388D01*
X151830142Y-81106801D01*
X151882655Y-80980022D01*
X151958893Y-80865925D01*
X152055925Y-80768893D01*
X152170022Y-80692655D01*
X152296801Y-80640142D01*
X152431388Y-80613371D01*
X152568612Y-80613371D01*
X152703199Y-80640142D01*
G37*
G36*
X130482228Y-79484448D02*
G01*
X130627117Y-79544463D01*
X130757515Y-79631592D01*
X130868408Y-79742485D01*
X130955537Y-79872883D01*
X131015552Y-80017772D01*
X131046148Y-80171586D01*
X131046148Y-80328414D01*
X131015552Y-80482228D01*
X130955537Y-80627117D01*
X130868408Y-80757515D01*
X130757515Y-80868408D01*
X130627117Y-80955537D01*
X130482228Y-81015552D01*
X130328414Y-81046148D01*
X130171586Y-81046148D01*
X130017772Y-81015552D01*
X129872883Y-80955537D01*
X129742485Y-80868408D01*
X129631592Y-80757515D01*
X129544463Y-80627117D01*
X129484448Y-80482228D01*
X129453852Y-80328414D01*
X129453852Y-80171586D01*
X129484448Y-80017772D01*
X129544463Y-79872883D01*
X129631592Y-79742485D01*
X129742485Y-79631592D01*
X129872883Y-79544463D01*
X130017772Y-79484448D01*
X130171586Y-79453852D01*
X130328414Y-79453852D01*
X130482228Y-79484448D01*
G37*
G36*
X145722228Y-79484448D02*
G01*
X145867117Y-79544463D01*
X145997515Y-79631592D01*
X146108408Y-79742485D01*
X146195537Y-79872883D01*
X146255552Y-80017772D01*
X146286148Y-80171586D01*
X146286148Y-80328414D01*
X146255552Y-80482228D01*
X146195537Y-80627117D01*
X146108408Y-80757515D01*
X145997515Y-80868408D01*
X145867117Y-80955537D01*
X145722228Y-81015552D01*
X145568414Y-81046148D01*
X145411586Y-81046148D01*
X145257772Y-81015552D01*
X145112883Y-80955537D01*
X144982485Y-80868408D01*
X144871592Y-80757515D01*
X144784463Y-80627117D01*
X144724448Y-80482228D01*
X144693852Y-80328414D01*
X144693852Y-80171586D01*
X144724448Y-80017772D01*
X144784463Y-79872883D01*
X144871592Y-79742485D01*
X144982485Y-79631592D01*
X145112883Y-79544463D01*
X145257772Y-79484448D01*
X145411586Y-79453852D01*
X145568414Y-79453852D01*
X145722228Y-79484448D01*
G37*
G36*
X158982228Y-77734448D02*
G01*
X159127117Y-77794463D01*
X159257515Y-77881592D01*
X159368408Y-77992485D01*
X159455537Y-78122883D01*
X159515552Y-78267772D01*
X159546148Y-78421586D01*
X159546148Y-78578414D01*
X159515552Y-78732228D01*
X159455537Y-78877117D01*
X159368408Y-79007515D01*
X159257515Y-79118408D01*
X159127117Y-79205537D01*
X158982228Y-79265552D01*
X158828414Y-79296148D01*
X158671586Y-79296148D01*
X158517772Y-79265552D01*
X158372883Y-79205537D01*
X158242485Y-79118408D01*
X158131592Y-79007515D01*
X158044463Y-78877117D01*
X157984448Y-78732228D01*
X157953852Y-78578414D01*
X157953852Y-78421586D01*
X157984448Y-78267772D01*
X158044463Y-78122883D01*
X158131592Y-77992485D01*
X158242485Y-77881592D01*
X158372883Y-77794463D01*
X158517772Y-77734448D01*
X158671586Y-77703852D01*
X158828414Y-77703852D01*
X158982228Y-77734448D01*
G37*
G36*
X167168285Y-77076060D02*
G01*
X167349397Y-77151079D01*
X167512393Y-77259990D01*
X167651010Y-77398607D01*
X167759921Y-77561603D01*
X167834940Y-77742715D01*
X167873185Y-77934983D01*
X167873185Y-78131017D01*
X167834940Y-78323285D01*
X167759921Y-78504397D01*
X167651010Y-78667393D01*
X167512393Y-78806010D01*
X167349397Y-78914921D01*
X167168285Y-78989940D01*
X166976017Y-79028185D01*
X166779983Y-79028185D01*
X166587715Y-78989940D01*
X166406603Y-78914921D01*
X166243607Y-78806010D01*
X166104990Y-78667393D01*
X165996079Y-78504397D01*
X165921060Y-78323285D01*
X165882815Y-78131017D01*
X165882815Y-77934983D01*
X165921060Y-77742715D01*
X165996079Y-77561603D01*
X166104990Y-77398607D01*
X166243607Y-77259990D01*
X166406603Y-77151079D01*
X166587715Y-77076060D01*
X166779983Y-77037815D01*
X166976017Y-77037815D01*
X167168285Y-77076060D01*
G37*
G36*
X173668285Y-77076060D02*
G01*
X173849397Y-77151079D01*
X174012393Y-77259990D01*
X174151010Y-77398607D01*
X174259921Y-77561603D01*
X174334940Y-77742715D01*
X174373185Y-77934983D01*
X174373185Y-78131017D01*
X174334940Y-78323285D01*
X174259921Y-78504397D01*
X174151010Y-78667393D01*
X174012393Y-78806010D01*
X173849397Y-78914921D01*
X173668285Y-78989940D01*
X173476017Y-79028185D01*
X173279983Y-79028185D01*
X173087715Y-78989940D01*
X172906603Y-78914921D01*
X172743607Y-78806010D01*
X172604990Y-78667393D01*
X172496079Y-78504397D01*
X172421060Y-78323285D01*
X172382815Y-78131017D01*
X172382815Y-77934983D01*
X172421060Y-77742715D01*
X172496079Y-77561603D01*
X172604990Y-77398607D01*
X172743607Y-77259990D01*
X172906603Y-77151079D01*
X173087715Y-77076060D01*
X173279983Y-77037815D01*
X173476017Y-77037815D01*
X173668285Y-77076060D01*
G37*
G36*
X130482228Y-76944448D02*
G01*
X130627117Y-77004463D01*
X130757515Y-77091592D01*
X130868408Y-77202485D01*
X130955537Y-77332883D01*
X131015552Y-77477772D01*
X131046148Y-77631586D01*
X131046148Y-77788414D01*
X131015552Y-77942228D01*
X130955537Y-78087117D01*
X130868408Y-78217515D01*
X130757515Y-78328408D01*
X130627117Y-78415537D01*
X130482228Y-78475552D01*
X130328414Y-78506148D01*
X130171586Y-78506148D01*
X130017772Y-78475552D01*
X129872883Y-78415537D01*
X129742485Y-78328408D01*
X129631592Y-78217515D01*
X129544463Y-78087117D01*
X129484448Y-77942228D01*
X129453852Y-77788414D01*
X129453852Y-77631586D01*
X129484448Y-77477772D01*
X129544463Y-77332883D01*
X129631592Y-77202485D01*
X129742485Y-77091592D01*
X129872883Y-77004463D01*
X130017772Y-76944448D01*
X130171586Y-76913852D01*
X130328414Y-76913852D01*
X130482228Y-76944448D01*
G37*
G36*
X145722228Y-76944448D02*
G01*
X145867117Y-77004463D01*
X145997515Y-77091592D01*
X146108408Y-77202485D01*
X146195537Y-77332883D01*
X146255552Y-77477772D01*
X146286148Y-77631586D01*
X146286148Y-77788414D01*
X146255552Y-77942228D01*
X146195537Y-78087117D01*
X146108408Y-78217515D01*
X145997515Y-78328408D01*
X145867117Y-78415537D01*
X145722228Y-78475552D01*
X145568414Y-78506148D01*
X145411586Y-78506148D01*
X145257772Y-78475552D01*
X145112883Y-78415537D01*
X144982485Y-78328408D01*
X144871592Y-78217515D01*
X144784463Y-78087117D01*
X144724448Y-77942228D01*
X144693852Y-77788414D01*
X144693852Y-77631586D01*
X144724448Y-77477772D01*
X144784463Y-77332883D01*
X144871592Y-77202485D01*
X144982485Y-77091592D01*
X145112883Y-77004463D01*
X145257772Y-76944448D01*
X145411586Y-76913852D01*
X145568414Y-76913852D01*
X145722228Y-76944448D01*
G37*
G36*
X130482228Y-74404448D02*
G01*
X130627117Y-74464463D01*
X130757515Y-74551592D01*
X130868408Y-74662485D01*
X130955537Y-74792883D01*
X131015552Y-74937772D01*
X131046148Y-75091586D01*
X131046148Y-75248414D01*
X131015552Y-75402228D01*
X130955537Y-75547117D01*
X130868408Y-75677515D01*
X130757515Y-75788408D01*
X130627117Y-75875537D01*
X130482228Y-75935552D01*
X130328414Y-75966148D01*
X130171586Y-75966148D01*
X130017772Y-75935552D01*
X129872883Y-75875537D01*
X129742485Y-75788408D01*
X129631592Y-75677515D01*
X129544463Y-75547117D01*
X129484448Y-75402228D01*
X129453852Y-75248414D01*
X129453852Y-75091586D01*
X129484448Y-74937772D01*
X129544463Y-74792883D01*
X129631592Y-74662485D01*
X129742485Y-74551592D01*
X129872883Y-74464463D01*
X130017772Y-74404448D01*
X130171586Y-74373852D01*
X130328414Y-74373852D01*
X130482228Y-74404448D01*
G37*
G36*
X145722228Y-74404448D02*
G01*
X145867117Y-74464463D01*
X145997515Y-74551592D01*
X146108408Y-74662485D01*
X146195537Y-74792883D01*
X146255552Y-74937772D01*
X146286148Y-75091586D01*
X146286148Y-75248414D01*
X146255552Y-75402228D01*
X146195537Y-75547117D01*
X146108408Y-75677515D01*
X145997515Y-75788408D01*
X145867117Y-75875537D01*
X145722228Y-75935552D01*
X145568414Y-75966148D01*
X145411586Y-75966148D01*
X145257772Y-75935552D01*
X145112883Y-75875537D01*
X144982485Y-75788408D01*
X144871592Y-75677515D01*
X144784463Y-75547117D01*
X144724448Y-75402228D01*
X144693852Y-75248414D01*
X144693852Y-75091586D01*
X144724448Y-74937772D01*
X144784463Y-74792883D01*
X144871592Y-74662485D01*
X144982485Y-74551592D01*
X145112883Y-74464463D01*
X145257772Y-74404448D01*
X145411586Y-74373852D01*
X145568414Y-74373852D01*
X145722228Y-74404448D01*
G37*
G36*
X167168285Y-72576060D02*
G01*
X167349397Y-72651079D01*
X167512393Y-72759990D01*
X167651010Y-72898607D01*
X167759921Y-73061603D01*
X167834940Y-73242715D01*
X167873185Y-73434983D01*
X167873185Y-73631017D01*
X167834940Y-73823285D01*
X167759921Y-74004397D01*
X167651010Y-74167393D01*
X167512393Y-74306010D01*
X167349397Y-74414921D01*
X167168285Y-74489940D01*
X166976017Y-74528185D01*
X166779983Y-74528185D01*
X166587715Y-74489940D01*
X166406603Y-74414921D01*
X166243607Y-74306010D01*
X166104990Y-74167393D01*
X165996079Y-74004397D01*
X165921060Y-73823285D01*
X165882815Y-73631017D01*
X165882815Y-73434983D01*
X165921060Y-73242715D01*
X165996079Y-73061603D01*
X166104990Y-72898607D01*
X166243607Y-72759990D01*
X166406603Y-72651079D01*
X166587715Y-72576060D01*
X166779983Y-72537815D01*
X166976017Y-72537815D01*
X167168285Y-72576060D01*
G37*
G36*
X173668285Y-72576060D02*
G01*
X173849397Y-72651079D01*
X174012393Y-72759990D01*
X174151010Y-72898607D01*
X174259921Y-73061603D01*
X174334940Y-73242715D01*
X174373185Y-73434983D01*
X174373185Y-73631017D01*
X174334940Y-73823285D01*
X174259921Y-74004397D01*
X174151010Y-74167393D01*
X174012393Y-74306010D01*
X173849397Y-74414921D01*
X173668285Y-74489940D01*
X173476017Y-74528185D01*
X173279983Y-74528185D01*
X173087715Y-74489940D01*
X172906603Y-74414921D01*
X172743607Y-74306010D01*
X172604990Y-74167393D01*
X172496079Y-74004397D01*
X172421060Y-73823285D01*
X172382815Y-73631017D01*
X172382815Y-73434983D01*
X172421060Y-73242715D01*
X172496079Y-73061603D01*
X172604990Y-72898607D01*
X172743607Y-72759990D01*
X172906603Y-72651079D01*
X173087715Y-72576060D01*
X173279983Y-72537815D01*
X173476017Y-72537815D01*
X173668285Y-72576060D01*
G37*
G36*
X152703199Y-73020142D02*
G01*
X152829978Y-73072655D01*
X152944075Y-73148893D01*
X153041107Y-73245925D01*
X153117345Y-73360022D01*
X153169858Y-73486801D01*
X153196629Y-73621388D01*
X153196629Y-73758612D01*
X153169858Y-73893199D01*
X153117345Y-74019978D01*
X153041107Y-74134075D01*
X152944075Y-74231107D01*
X152829978Y-74307345D01*
X152703199Y-74359858D01*
X152568612Y-74386629D01*
X152431388Y-74386629D01*
X152296801Y-74359858D01*
X152170022Y-74307345D01*
X152055925Y-74231107D01*
X151958893Y-74134075D01*
X151882655Y-74019978D01*
X151830142Y-73893199D01*
X151803371Y-73758612D01*
X151803371Y-73621388D01*
X151830142Y-73486801D01*
X151882655Y-73360022D01*
X151958893Y-73245925D01*
X152055925Y-73148893D01*
X152170022Y-73072655D01*
X152296801Y-73020142D01*
X152431388Y-72993371D01*
X152568612Y-72993371D01*
X152703199Y-73020142D01*
G37*
G36*
X158982228Y-72734448D02*
G01*
X159127117Y-72794463D01*
X159257515Y-72881592D01*
X159368408Y-72992485D01*
X159455537Y-73122883D01*
X159515552Y-73267772D01*
X159546148Y-73421586D01*
X159546148Y-73578414D01*
X159515552Y-73732228D01*
X159455537Y-73877117D01*
X159368408Y-74007515D01*
X159257515Y-74118408D01*
X159127117Y-74205537D01*
X158982228Y-74265552D01*
X158828414Y-74296148D01*
X158671586Y-74296148D01*
X158517772Y-74265552D01*
X158372883Y-74205537D01*
X158242485Y-74118408D01*
X158131592Y-74007515D01*
X158044463Y-73877117D01*
X157984448Y-73732228D01*
X157953852Y-73578414D01*
X157953852Y-73421586D01*
X157984448Y-73267772D01*
X158044463Y-73122883D01*
X158131592Y-72992485D01*
X158242485Y-72881592D01*
X158372883Y-72794463D01*
X158517772Y-72734448D01*
X158671586Y-72703852D01*
X158828414Y-72703852D01*
X158982228Y-72734448D01*
G37*
G36*
X130482228Y-71864448D02*
G01*
X130627117Y-71924463D01*
X130757515Y-72011592D01*
X130868408Y-72122485D01*
X130955537Y-72252883D01*
X131015552Y-72397772D01*
X131046148Y-72551586D01*
X131046148Y-72708414D01*
X131015552Y-72862228D01*
X130955537Y-73007117D01*
X130868408Y-73137515D01*
X130757515Y-73248408D01*
X130627117Y-73335537D01*
X130482228Y-73395552D01*
X130328414Y-73426148D01*
X130171586Y-73426148D01*
X130017772Y-73395552D01*
X129872883Y-73335537D01*
X129742485Y-73248408D01*
X129631592Y-73137515D01*
X129544463Y-73007117D01*
X129484448Y-72862228D01*
X129453852Y-72708414D01*
X129453852Y-72551586D01*
X129484448Y-72397772D01*
X129544463Y-72252883D01*
X129631592Y-72122485D01*
X129742485Y-72011592D01*
X129872883Y-71924463D01*
X130017772Y-71864448D01*
X130171586Y-71833852D01*
X130328414Y-71833852D01*
X130482228Y-71864448D01*
G37*
G36*
X145722228Y-71864448D02*
G01*
X145867117Y-71924463D01*
X145997515Y-72011592D01*
X146108408Y-72122485D01*
X146195537Y-72252883D01*
X146255552Y-72397772D01*
X146286148Y-72551586D01*
X146286148Y-72708414D01*
X146255552Y-72862228D01*
X146195537Y-73007117D01*
X146108408Y-73137515D01*
X145997515Y-73248408D01*
X145867117Y-73335537D01*
X145722228Y-73395552D01*
X145568414Y-73426148D01*
X145411586Y-73426148D01*
X145257772Y-73395552D01*
X145112883Y-73335537D01*
X144982485Y-73248408D01*
X144871592Y-73137515D01*
X144784463Y-73007117D01*
X144724448Y-72862228D01*
X144693852Y-72708414D01*
X144693852Y-72551586D01*
X144724448Y-72397772D01*
X144784463Y-72252883D01*
X144871592Y-72122485D01*
X144982485Y-72011592D01*
X145112883Y-71924463D01*
X145257772Y-71864448D01*
X145411586Y-71833852D01*
X145568414Y-71833852D01*
X145722228Y-71864448D01*
G37*
G36*
X130482228Y-69324448D02*
G01*
X130627117Y-69384463D01*
X130757515Y-69471592D01*
X130868408Y-69582485D01*
X130955537Y-69712883D01*
X131015552Y-69857772D01*
X131046148Y-70011586D01*
X131046148Y-70168414D01*
X131015552Y-70322228D01*
X130955537Y-70467117D01*
X130868408Y-70597515D01*
X130757515Y-70708408D01*
X130627117Y-70795537D01*
X130482228Y-70855552D01*
X130328414Y-70886148D01*
X130171586Y-70886148D01*
X130017772Y-70855552D01*
X129872883Y-70795537D01*
X129742485Y-70708408D01*
X129631592Y-70597515D01*
X129544463Y-70467117D01*
X129484448Y-70322228D01*
X129453852Y-70168414D01*
X129453852Y-70011586D01*
X129484448Y-69857772D01*
X129544463Y-69712883D01*
X129631592Y-69582485D01*
X129742485Y-69471592D01*
X129872883Y-69384463D01*
X130017772Y-69324448D01*
X130171586Y-69293852D01*
X130328414Y-69293852D01*
X130482228Y-69324448D01*
G37*
G36*
X145722228Y-69324448D02*
G01*
X145867117Y-69384463D01*
X145997515Y-69471592D01*
X146108408Y-69582485D01*
X146195537Y-69712883D01*
X146255552Y-69857772D01*
X146286148Y-70011586D01*
X146286148Y-70168414D01*
X146255552Y-70322228D01*
X146195537Y-70467117D01*
X146108408Y-70597515D01*
X145997515Y-70708408D01*
X145867117Y-70795537D01*
X145722228Y-70855552D01*
X145568414Y-70886148D01*
X145411586Y-70886148D01*
X145257772Y-70855552D01*
X145112883Y-70795537D01*
X144982485Y-70708408D01*
X144871592Y-70597515D01*
X144784463Y-70467117D01*
X144724448Y-70322228D01*
X144693852Y-70168414D01*
X144693852Y-70011586D01*
X144724448Y-69857772D01*
X144784463Y-69712883D01*
X144871592Y-69582485D01*
X144982485Y-69471592D01*
X145112883Y-69384463D01*
X145257772Y-69324448D01*
X145411586Y-69293852D01*
X145568414Y-69293852D01*
X145722228Y-69324448D01*
G37*
G36*
X172425000Y-68400000D02*
G01*
X170625000Y-68400000D01*
X170625000Y-66600000D01*
X172425000Y-66600000D01*
X172425000Y-68400000D01*
G37*
G36*
X169246256Y-66638754D02*
G01*
X169409257Y-66706271D01*
X169555954Y-66804291D01*
X169680709Y-66929046D01*
X169778729Y-67075743D01*
X169846246Y-67238744D01*
X169880666Y-67411785D01*
X169880666Y-67588215D01*
X169846246Y-67761256D01*
X169778729Y-67924257D01*
X169680709Y-68070954D01*
X169555954Y-68195709D01*
X169409257Y-68293729D01*
X169246256Y-68361246D01*
X169073215Y-68395666D01*
X168896785Y-68395666D01*
X168723744Y-68361246D01*
X168560743Y-68293729D01*
X168414046Y-68195709D01*
X168289291Y-68070954D01*
X168191271Y-67924257D01*
X168123754Y-67761256D01*
X168089334Y-67588215D01*
X168089334Y-67411785D01*
X168123754Y-67238744D01*
X168191271Y-67075743D01*
X168289291Y-66929046D01*
X168414046Y-66804291D01*
X168560743Y-66706271D01*
X168723744Y-66638754D01*
X168896785Y-66604334D01*
X169073215Y-66604334D01*
X169246256Y-66638754D01*
G37*
G36*
X130482228Y-66784448D02*
G01*
X130627117Y-66844463D01*
X130757515Y-66931592D01*
X130868408Y-67042485D01*
X130955537Y-67172883D01*
X131015552Y-67317772D01*
X131046148Y-67471586D01*
X131046148Y-67628414D01*
X131015552Y-67782228D01*
X130955537Y-67927117D01*
X130868408Y-68057515D01*
X130757515Y-68168408D01*
X130627117Y-68255537D01*
X130482228Y-68315552D01*
X130328414Y-68346148D01*
X130171586Y-68346148D01*
X130017772Y-68315552D01*
X129872883Y-68255537D01*
X129742485Y-68168408D01*
X129631592Y-68057515D01*
X129544463Y-67927117D01*
X129484448Y-67782228D01*
X129453852Y-67628414D01*
X129453852Y-67471586D01*
X129484448Y-67317772D01*
X129544463Y-67172883D01*
X129631592Y-67042485D01*
X129742485Y-66931592D01*
X129872883Y-66844463D01*
X130017772Y-66784448D01*
X130171586Y-66753852D01*
X130328414Y-66753852D01*
X130482228Y-66784448D01*
G37*
G36*
X145722228Y-66784448D02*
G01*
X145867117Y-66844463D01*
X145997515Y-66931592D01*
X146108408Y-67042485D01*
X146195537Y-67172883D01*
X146255552Y-67317772D01*
X146286148Y-67471586D01*
X146286148Y-67628414D01*
X146255552Y-67782228D01*
X146195537Y-67927117D01*
X146108408Y-68057515D01*
X145997515Y-68168408D01*
X145867117Y-68255537D01*
X145722228Y-68315552D01*
X145568414Y-68346148D01*
X145411586Y-68346148D01*
X145257772Y-68315552D01*
X145112883Y-68255537D01*
X144982485Y-68168408D01*
X144871592Y-68057515D01*
X144784463Y-67927117D01*
X144724448Y-67782228D01*
X144693852Y-67628414D01*
X144693852Y-67471586D01*
X144724448Y-67317772D01*
X144784463Y-67172883D01*
X144871592Y-67042485D01*
X144982485Y-66931592D01*
X145112883Y-66844463D01*
X145257772Y-66784448D01*
X145411586Y-66753852D01*
X145568414Y-66753852D01*
X145722228Y-66784448D01*
G37*
G36*
X152393199Y-66330142D02*
G01*
X152519978Y-66382655D01*
X152634075Y-66458893D01*
X152731107Y-66555925D01*
X152807345Y-66670022D01*
X152859858Y-66796801D01*
X152886629Y-66931388D01*
X152886629Y-67068612D01*
X152859858Y-67203199D01*
X152807345Y-67329978D01*
X152731107Y-67444075D01*
X152634075Y-67541107D01*
X152519978Y-67617345D01*
X152393199Y-67669858D01*
X152258612Y-67696629D01*
X152121388Y-67696629D01*
X151986801Y-67669858D01*
X151860022Y-67617345D01*
X151745925Y-67541107D01*
X151648893Y-67444075D01*
X151572655Y-67329978D01*
X151520142Y-67203199D01*
X151493371Y-67068612D01*
X151493371Y-66931388D01*
X151520142Y-66796801D01*
X151572655Y-66670022D01*
X151648893Y-66555925D01*
X151745925Y-66458893D01*
X151860022Y-66382655D01*
X151986801Y-66330142D01*
X152121388Y-66303371D01*
X152258612Y-66303371D01*
X152393199Y-66330142D01*
G37*
G36*
X160013199Y-66330142D02*
G01*
X160139978Y-66382655D01*
X160254075Y-66458893D01*
X160351107Y-66555925D01*
X160427345Y-66670022D01*
X160479858Y-66796801D01*
X160506629Y-66931388D01*
X160506629Y-67068612D01*
X160479858Y-67203199D01*
X160427345Y-67329978D01*
X160351107Y-67444075D01*
X160254075Y-67541107D01*
X160139978Y-67617345D01*
X160013199Y-67669858D01*
X159878612Y-67696629D01*
X159741388Y-67696629D01*
X159606801Y-67669858D01*
X159480022Y-67617345D01*
X159365925Y-67541107D01*
X159268893Y-67444075D01*
X159192655Y-67329978D01*
X159140142Y-67203199D01*
X159113371Y-67068612D01*
X159113371Y-66931388D01*
X159140142Y-66796801D01*
X159192655Y-66670022D01*
X159268893Y-66555925D01*
X159365925Y-66458893D01*
X159480022Y-66382655D01*
X159606801Y-66330142D01*
X159741388Y-66303371D01*
X159878612Y-66303371D01*
X160013199Y-66330142D01*
G37*
G36*
X105682500Y-64952500D02*
G01*
X103777500Y-64952500D01*
X103777500Y-63047500D01*
X105682500Y-63047500D01*
X105682500Y-64952500D01*
G37*
G36*
X109006496Y-63088514D02*
G01*
X109179005Y-63159970D01*
X109334260Y-63263708D01*
X109466292Y-63395740D01*
X109570030Y-63550995D01*
X109641486Y-63723504D01*
X109677913Y-63906639D01*
X109677913Y-64093361D01*
X109641486Y-64276496D01*
X109570030Y-64449005D01*
X109466292Y-64604260D01*
X109334260Y-64736292D01*
X109179005Y-64840030D01*
X109006496Y-64911486D01*
X108823361Y-64947913D01*
X108636639Y-64947913D01*
X108453504Y-64911486D01*
X108280995Y-64840030D01*
X108125740Y-64736292D01*
X107993708Y-64604260D01*
X107889970Y-64449005D01*
X107818514Y-64276496D01*
X107782087Y-64093361D01*
X107782087Y-63906639D01*
X107818514Y-63723504D01*
X107889970Y-63550995D01*
X107993708Y-63395740D01*
X108125740Y-63263708D01*
X108280995Y-63159970D01*
X108453504Y-63088514D01*
X108636639Y-63052087D01*
X108823361Y-63052087D01*
X109006496Y-63088514D01*
G37*
G36*
X117006496Y-63088514D02*
G01*
X117179005Y-63159970D01*
X117334260Y-63263708D01*
X117466292Y-63395740D01*
X117570030Y-63550995D01*
X117641486Y-63723504D01*
X117677913Y-63906639D01*
X117677913Y-64093361D01*
X117641486Y-64276496D01*
X117570030Y-64449005D01*
X117466292Y-64604260D01*
X117334260Y-64736292D01*
X117179005Y-64840030D01*
X117006496Y-64911486D01*
X116823361Y-64947913D01*
X116636639Y-64947913D01*
X116453504Y-64911486D01*
X116280995Y-64840030D01*
X116125740Y-64736292D01*
X115993708Y-64604260D01*
X115889970Y-64449005D01*
X115818514Y-64276496D01*
X115782087Y-64093361D01*
X115782087Y-63906639D01*
X115818514Y-63723504D01*
X115889970Y-63550995D01*
X115993708Y-63395740D01*
X116125740Y-63263708D01*
X116280995Y-63159970D01*
X116453504Y-63088514D01*
X116636639Y-63052087D01*
X116823361Y-63052087D01*
X117006496Y-63088514D01*
G37*
G36*
X121006496Y-63088514D02*
G01*
X121179005Y-63159970D01*
X121334260Y-63263708D01*
X121466292Y-63395740D01*
X121570030Y-63550995D01*
X121641486Y-63723504D01*
X121677913Y-63906639D01*
X121677913Y-64093361D01*
X121641486Y-64276496D01*
X121570030Y-64449005D01*
X121466292Y-64604260D01*
X121334260Y-64736292D01*
X121179005Y-64840030D01*
X121006496Y-64911486D01*
X120823361Y-64947913D01*
X120636639Y-64947913D01*
X120453504Y-64911486D01*
X120280995Y-64840030D01*
X120125740Y-64736292D01*
X119993708Y-64604260D01*
X119889970Y-64449005D01*
X119818514Y-64276496D01*
X119782087Y-64093361D01*
X119782087Y-63906639D01*
X119818514Y-63723504D01*
X119889970Y-63550995D01*
X119993708Y-63395740D01*
X120125740Y-63263708D01*
X120280995Y-63159970D01*
X120453504Y-63088514D01*
X120636639Y-63052087D01*
X120823361Y-63052087D01*
X121006496Y-63088514D01*
G37*
M02*
