%TF.GenerationSoftware,KiCad,Pcbnew,9.0.4*%
%TF.CreationDate,2025-10-12T14:44:03+03:00*%
%TF.ProjectId,test_work_1,74657374-5f77-46f7-926b-5f312e6b6963,rev?*%
%TF.SameCoordinates,Original*%
%TF.FileFunction,Plated,1,4,PTH,Drill*%
%TF.FilePolarity,Positive*%
%FSLAX46Y46*%
G04 Gerber Fmt 4.6, Leading zero omitted, Abs format (unit mm)*
G04 Created by KiCad (PCBNEW 9.0.4) date 2025-10-12 14:44:03*
%MOMM*%
%LPD*%
G01*
G04 APERTURE LIST*
%TA.AperFunction,ViaDrill*%
%ADD10C,0.300000*%
%TD*%
%TA.AperFunction,ComponentDrill*%
%ADD11C,0.700000*%
%TD*%
%TA.AperFunction,ComponentDrill*%
%ADD12C,0.800000*%
%TD*%
%TA.AperFunction,ComponentDrill*%
%ADD13C,0.900000*%
%TD*%
%TA.AperFunction,ComponentDrill*%
%ADD14C,1.000000*%
%TD*%
%TA.AperFunction,ComponentDrill*%
%ADD15C,1.100000*%
%TD*%
G04 APERTURE END LIST*
D10*
X108920000Y-94460000D03*
X111460000Y-94460000D03*
X114000000Y-94460000D03*
X116540000Y-94460000D03*
X119080000Y-94460000D03*
X124000000Y-84703000D03*
X129000000Y-88000000D03*
D11*
%TO.C,R4*%
X152190000Y-67000000D03*
%TO.C,R3*%
X152500000Y-73690000D03*
X152500000Y-81310000D03*
%TO.C,R2*%
X152500000Y-86190000D03*
X152500000Y-93810000D03*
%TO.C,R1*%
X152500000Y-97690000D03*
X152500000Y-105310000D03*
%TO.C,R4*%
X159810000Y-67000000D03*
D12*
%TO.C,U3*%
X104730000Y-64000000D03*
X108730000Y-64000000D03*
X116730000Y-64000000D03*
X120730000Y-64000000D03*
%TO.C,C3*%
X158750000Y-73500000D03*
X158750000Y-78500000D03*
%TO.C,C2*%
X159000000Y-86250000D03*
X159000000Y-91250000D03*
%TO.C,C1*%
X159000000Y-97750000D03*
X159000000Y-102750000D03*
D13*
%TO.C,D1*%
X168985000Y-67500000D03*
X171525000Y-67500000D03*
D14*
%TO.C,A1*%
X130250000Y-67550000D03*
X130250000Y-70090000D03*
X130250000Y-72630000D03*
X130250000Y-75170000D03*
X130250000Y-77710000D03*
X130250000Y-80250000D03*
X130250000Y-82790000D03*
X130250000Y-85330000D03*
X130250000Y-87870000D03*
X130250000Y-90410000D03*
X130250000Y-92950000D03*
X130250000Y-95490000D03*
X130250000Y-98030000D03*
X130250000Y-100570000D03*
X130250000Y-103110000D03*
X145490000Y-67550000D03*
X145490000Y-70090000D03*
X145490000Y-72630000D03*
X145490000Y-75170000D03*
X145490000Y-77710000D03*
X145490000Y-80250000D03*
X145490000Y-82790000D03*
X145490000Y-85330000D03*
X145490000Y-87870000D03*
X145490000Y-90410000D03*
X145490000Y-92950000D03*
X145490000Y-95490000D03*
X145490000Y-98030000D03*
X145490000Y-100570000D03*
X145490000Y-103110000D03*
D15*
%TO.C,SW1*%
X166250000Y-97750000D03*
X166250000Y-102250000D03*
%TO.C,SW2*%
X166500000Y-86500000D03*
X166500000Y-91000000D03*
%TO.C,SW3*%
X166878000Y-73533000D03*
X166878000Y-78033000D03*
%TO.C,SW1*%
X172750000Y-97750000D03*
X172750000Y-102250000D03*
%TO.C,SW2*%
X173000000Y-86500000D03*
X173000000Y-91000000D03*
%TO.C,SW3*%
X173378000Y-73533000D03*
X173378000Y-78033000D03*
M02*
