%TF.GenerationSoftware,KiCad,Pcbnew,9.0.4*%
%TF.CreationDate,2025-11-20T06:57:18+02:00*%
%TF.ProjectId,test_5,74657374-5f35-42e6-9b69-6361645f7063,rev?*%
%TF.SameCoordinates,Original*%
%TF.FileFunction,Copper,L2,Bot*%
%TF.FilePolarity,Positive*%
%FSLAX46Y46*%
G04 Gerber Fmt 4.6, Leading zero omitted, Abs format (unit mm)*
G04 Created by KiCad (PCBNEW 9.0.4) date 2025-11-20 06:57:18*
%MOMM*%
%LPD*%
G01*
G04 APERTURE LIST*
%TA.AperFunction,ComponentPad*%
%ADD10R,1.308000X1.308000*%
%TD*%
%TA.AperFunction,ComponentPad*%
%ADD11C,1.308000*%
%TD*%
%TA.AperFunction,ComponentPad*%
%ADD12R,1.700000X1.700000*%
%TD*%
%TA.AperFunction,ComponentPad*%
%ADD13C,1.700000*%
%TD*%
%TA.AperFunction,ViaPad*%
%ADD14C,0.600000*%
%TD*%
%TA.AperFunction,Conductor*%
%ADD15C,0.200000*%
%TD*%
G04 APERTURE END LIST*
D10*
%TO.P,U1,1,A0*%
%TO.N,/Vcc*%
X70616000Y-100838000D03*
D11*
%TO.P,U1,2,A1*%
X70616000Y-103378000D03*
%TO.P,U1,3,A2*%
X70616000Y-105918000D03*
%TO.P,U1,4,GND*%
%TO.N,GND*%
X70616000Y-108458000D03*
%TO.P,U1,5,SDA*%
%TO.N,/SDA*%
X78486000Y-108458000D03*
%TO.P,U1,6,SCL*%
%TO.N,/SCL*%
X78486000Y-105918000D03*
%TO.P,U1,7,WP*%
%TO.N,GND*%
X78486000Y-103378000D03*
%TO.P,U1,8,VCC*%
%TO.N,unconnected-(U1-VCC-Pad8)*%
X78486000Y-100838000D03*
%TD*%
D12*
%TO.P,J4,1,Pin_1*%
%TO.N,/MOSI*%
X99441000Y-109601000D03*
D13*
%TO.P,J4,2,Pin_2*%
%TO.N,/Vcc*%
X101981000Y-109601000D03*
%TO.P,J4,3,Pin_3*%
%TO.N,/SCK*%
X99441000Y-112141000D03*
%TO.P,J4,4,Pin_4*%
%TO.N,/MISO*%
X101981000Y-112141000D03*
%TO.P,J4,5,Pin_5*%
%TO.N,/RESET*%
X99441000Y-114681000D03*
%TO.P,J4,6,Pin_6*%
%TO.N,GND*%
X101981000Y-114681000D03*
%TD*%
D12*
%TO.P,J1,1,Pin_1*%
%TO.N,GND*%
X101727000Y-119761000D03*
D13*
%TO.P,J1,2,Pin_2*%
%TO.N,/Vcc*%
X101727000Y-122301000D03*
%TO.P,J1,3,Pin_3*%
%TO.N,/SDA*%
X101727000Y-124841000D03*
%TO.P,J1,4,Pin_4*%
%TO.N,/SCL*%
X101727000Y-127381000D03*
%TD*%
D12*
%TO.P,J3,1,Pin_1*%
%TO.N,/D2*%
X69977000Y-132080000D03*
D13*
%TO.P,J3,2,Pin_2*%
%TO.N,/D3*%
X72517000Y-132080000D03*
%TO.P,J3,3,Pin_3*%
%TO.N,/D4*%
X75057000Y-132080000D03*
%TO.P,J3,4,Pin_4*%
%TO.N,/D5*%
X77597000Y-132080000D03*
%TO.P,J3,5,Pin_5*%
%TO.N,/D6*%
X80137000Y-132080000D03*
%TO.P,J3,6,Pin_6*%
%TO.N,/D7*%
X82677000Y-132080000D03*
%TO.P,J3,7,Pin_7*%
%TO.N,/D8*%
X85217000Y-132080000D03*
%TO.P,J3,8,Pin_8*%
%TO.N,GND*%
X87757000Y-132080000D03*
%TO.P,J3,9,Pin_9*%
%TO.N,/Vcc*%
X90297000Y-132080000D03*
%TD*%
D12*
%TO.P,J2,1,Pin_1*%
%TO.N,GND*%
X98298000Y-101219000D03*
D13*
%TO.P,J2,2,Pin_2*%
%TO.N,/Vcc*%
X95758000Y-101219000D03*
%TO.P,J2,3,Pin_3*%
%TO.N,/RX*%
X93218000Y-101219000D03*
%TO.P,J2,4,Pin_4*%
%TO.N,/TX*%
X90678000Y-101219000D03*
%TD*%
D12*
%TO.P,BT1,1,+*%
%TO.N,Net-(BT1-+)*%
X66167000Y-112141000D03*
D13*
%TO.P,BT1,2,-*%
%TO.N,GND*%
X66167000Y-114681000D03*
%TD*%
D10*
%TO.P,U2,1,A0*%
%TO.N,/Vcc*%
X70489000Y-111887000D03*
D11*
%TO.P,U2,2,A1*%
%TO.N,GND*%
X70489000Y-114427000D03*
%TO.P,U2,3,A2*%
%TO.N,/Vcc*%
X70489000Y-116967000D03*
%TO.P,U2,4,GND*%
%TO.N,GND*%
X70489000Y-119507000D03*
%TO.P,U2,5,SDA*%
%TO.N,/SDA*%
X78359000Y-119507000D03*
%TO.P,U2,6,SCL*%
%TO.N,/SCL*%
X78359000Y-116967000D03*
%TO.P,U2,7,WP*%
%TO.N,GND*%
X78359000Y-114427000D03*
%TO.P,U2,8,VCC*%
%TO.N,unconnected-(U2-VCC-Pad8)*%
X78359000Y-111887000D03*
%TD*%
D14*
%TO.N,Net-(BT1-+)*%
X88900000Y-113792000D03*
X86614000Y-113792000D03*
X74676000Y-108966000D03*
X69532500Y-107632500D03*
X78740000Y-104648000D03*
%TO.N,GND*%
X93853000Y-112268000D03*
X85217000Y-112903000D03*
X84963000Y-111379000D03*
X89662000Y-110617000D03*
X94615000Y-116459000D03*
%TO.N,Net-(U4-PB6)*%
X90932000Y-118872000D03*
X86106000Y-115189000D03*
%TO.N,/SCK*%
X97028000Y-114554000D03*
%TO.N,/SCL*%
X81788000Y-107061000D03*
X76200000Y-114427000D03*
X75565000Y-123952000D03*
X97028000Y-130556000D03*
X88392000Y-128651000D03*
X86614000Y-109855000D03*
%TO.N,/SDA*%
X76835000Y-116967000D03*
X76200000Y-124841000D03*
X89662000Y-111760000D03*
X88900000Y-106045000D03*
%TO.N,/Vcc*%
X94996000Y-104394000D03*
X80010000Y-107315000D03*
%TO.N,/D3*%
X81534000Y-110363000D03*
%TO.N,/D5*%
X84391500Y-118173500D03*
%TO.N,/D8*%
X87338000Y-118148000D03*
%TO.N,/D6*%
X85407500Y-118173500D03*
%TO.N,/D2*%
X81343500Y-108394500D03*
%TO.N,/D7*%
X86296500Y-118173500D03*
%TO.N,/D4*%
X81915000Y-111506000D03*
%TO.N,/MOSI*%
X92964000Y-118110000D03*
%TO.N,/RESET*%
X93472000Y-108712000D03*
X96266000Y-111506000D03*
%TO.N,/MISO*%
X92202000Y-117094000D03*
X93726000Y-116332000D03*
X96774000Y-116459000D03*
%TD*%
D15*
%TO.N,Net-(BT1-+)*%
X74295000Y-107442000D02*
X77089000Y-104648000D01*
X88900000Y-113792000D02*
X86614000Y-113792000D01*
X69532500Y-107632500D02*
X69723000Y-107442000D01*
X77089000Y-104648000D02*
X78740000Y-104648000D01*
X69723000Y-107442000D02*
X74295000Y-107442000D01*
X74676000Y-107823000D02*
X74295000Y-107442000D01*
X74676000Y-108966000D02*
X74676000Y-107823000D01*
%TO.N,GND*%
X84836000Y-111506000D02*
X84963000Y-111379000D01*
X85217000Y-111760000D02*
X84963000Y-111506000D01*
X85217000Y-112903000D02*
X85217000Y-111760000D01*
X94488000Y-112268000D02*
X93853000Y-112268000D01*
X85725000Y-110617000D02*
X84963000Y-111379000D01*
X94615000Y-116459000D02*
X94615000Y-112395000D01*
X94615000Y-112395000D02*
X94488000Y-112268000D01*
X84963000Y-111506000D02*
X84836000Y-111506000D01*
X89662000Y-110617000D02*
X85725000Y-110617000D01*
%TO.N,Net-(U4-PB6)*%
X86360000Y-115189000D02*
X90043000Y-118872000D01*
X90043000Y-118872000D02*
X90932000Y-118872000D01*
X86106000Y-115189000D02*
X86360000Y-115189000D01*
%TO.N,/SCK*%
X99441000Y-112141000D02*
X97028000Y-114554000D01*
X99441000Y-112141000D02*
X100076000Y-112141000D01*
%TO.N,/SCL*%
X91186000Y-128778000D02*
X88519000Y-128778000D01*
X81788000Y-107061000D02*
X82677000Y-107061000D01*
X82677000Y-107061000D02*
X85471000Y-109855000D01*
X75184000Y-123571000D02*
X75184000Y-120142000D01*
X76200000Y-113919000D02*
X76327000Y-113792000D01*
X92964000Y-130556000D02*
X91186000Y-128778000D01*
X76327000Y-108077000D02*
X78486000Y-105918000D01*
X88519000Y-128778000D02*
X88392000Y-128651000D01*
X75184000Y-120142000D02*
X78359000Y-116967000D01*
X76200000Y-114427000D02*
X76200000Y-113919000D01*
X85471000Y-109855000D02*
X86614000Y-109855000D01*
X97028000Y-130556000D02*
X92964000Y-130556000D01*
X76327000Y-113792000D02*
X76327000Y-108077000D01*
X75565000Y-123952000D02*
X75184000Y-123571000D01*
X78105000Y-116967000D02*
X78359000Y-116967000D01*
%TO.N,/SDA*%
X76200000Y-124841000D02*
X76200000Y-121666000D01*
X89662000Y-111760000D02*
X89662000Y-116078000D01*
X76200000Y-121666000D02*
X78359000Y-119507000D01*
X88900000Y-106045000D02*
X87884000Y-105029000D01*
X80010000Y-109982000D02*
X78486000Y-108458000D01*
X76835000Y-116967000D02*
X76835000Y-109728000D01*
X76835000Y-109728000D02*
X78105000Y-108458000D01*
X78359000Y-119507000D02*
X79883000Y-117983000D01*
X95631000Y-122047000D02*
X98933000Y-122047000D01*
X98933000Y-122047000D02*
X101727000Y-124841000D01*
X87884000Y-105029000D02*
X81005497Y-105029000D01*
X78105000Y-108458000D02*
X78486000Y-108458000D01*
X79883000Y-117983000D02*
X80010000Y-117983000D01*
X78486000Y-107548497D02*
X78486000Y-108458000D01*
X89662000Y-116078000D02*
X95631000Y-122047000D01*
X80010000Y-117983000D02*
X80010000Y-109982000D01*
X81005497Y-105029000D02*
X78486000Y-107548497D01*
%TO.N,/Vcc*%
X97980500Y-105600500D02*
X101981000Y-109601000D01*
X95758000Y-103632000D02*
X96012000Y-103632000D01*
X87630000Y-106299000D02*
X88011000Y-106680000D01*
X95631000Y-106680000D02*
X97345500Y-104965500D01*
X95758000Y-103632000D02*
X95758000Y-101219000D01*
X88011000Y-106680000D02*
X95631000Y-106680000D01*
X96012000Y-103632000D02*
X97345500Y-104965500D01*
X81407000Y-106299000D02*
X87630000Y-106299000D01*
X80010000Y-107315000D02*
X80391000Y-107315000D01*
X96139000Y-101600000D02*
X95758000Y-101219000D01*
X97345500Y-104965500D02*
X97980500Y-105600500D01*
X80391000Y-107315000D02*
X81407000Y-106299000D01*
X94996000Y-104394000D02*
X95758000Y-103632000D01*
%TO.N,/D3*%
X81280000Y-123317000D02*
X72517000Y-132080000D01*
X81534000Y-110363000D02*
X81280000Y-110617000D01*
X81280000Y-110617000D02*
X81280000Y-123317000D01*
%TO.N,/D5*%
X83947000Y-125730000D02*
X77597000Y-132080000D01*
X84391500Y-118173500D02*
X83947000Y-118618000D01*
X83947000Y-118618000D02*
X83947000Y-125730000D01*
%TO.N,/D8*%
X86995000Y-118491000D02*
X86995000Y-130302000D01*
X86995000Y-130302000D02*
X85217000Y-132080000D01*
X87338000Y-118148000D02*
X86995000Y-118491000D01*
%TO.N,/D6*%
X84836000Y-127381000D02*
X80137000Y-132080000D01*
X84836000Y-118745000D02*
X84836000Y-127381000D01*
X85407500Y-118173500D02*
X84836000Y-118745000D01*
%TO.N,/D2*%
X81343500Y-108394500D02*
X80645000Y-109093000D01*
X80645000Y-121412000D02*
X69977000Y-132080000D01*
X80645000Y-109093000D02*
X80645000Y-121412000D01*
%TO.N,/D7*%
X85979000Y-128778000D02*
X82677000Y-132080000D01*
X85979000Y-118491000D02*
X85979000Y-128778000D01*
X86296500Y-118173500D02*
X85979000Y-118491000D01*
%TO.N,/D4*%
X81915000Y-125222000D02*
X81915000Y-111506000D01*
X75057000Y-132080000D02*
X81915000Y-125222000D01*
%TO.N,/MOSI*%
X95885000Y-116840000D02*
X95885000Y-113157000D01*
X92964000Y-118110000D02*
X94615000Y-118110000D01*
X94615000Y-118110000D02*
X95885000Y-116840000D01*
X95885000Y-113157000D02*
X99441000Y-109601000D01*
%TO.N,/RESET*%
X96266000Y-111506000D02*
X93472000Y-108712000D01*
%TO.N,/MISO*%
X92964000Y-117094000D02*
X93726000Y-116332000D01*
X96774000Y-116459000D02*
X97028000Y-116713000D01*
X97028000Y-116713000D02*
X102362000Y-116713000D01*
X92202000Y-117094000D02*
X92964000Y-117094000D01*
X102362000Y-116713000D02*
X103505000Y-115570000D01*
X102870000Y-112141000D02*
X101981000Y-112141000D01*
X103505000Y-112776000D02*
X102870000Y-112141000D01*
X103505000Y-115570000D02*
X103505000Y-112776000D01*
%TD*%
M02*
