%TF.GenerationSoftware,KiCad,Pcbnew,9.0.4*%
%TF.CreationDate,2025-11-20T06:56:56+02:00*%
%TF.ProjectId,test_5,74657374-5f35-42e6-9b69-6361645f7063,rev?*%
%TF.SameCoordinates,Original*%
%TF.FileFunction,Drillmap*%
%TF.FilePolarity,Positive*%
%FSLAX45Y45*%
G04 Gerber Fmt 4.5, Leading zero omitted, Abs format (unit mm)*
G04 Created by KiCad (PCBNEW 9.0.4) date 2025-11-20 06:56:56*
%MOMM*%
%LPD*%
G01*
G04 APERTURE LIST*
%ADD10C,0.050000*%
%ADD11C,0.200000*%
%ADD12C,0.210000*%
G04 APERTURE END LIST*
D10*
X6248400Y-9880600D02*
X10693400Y-9880600D01*
X10693400Y-13468350D01*
X6248400Y-13468350D01*
X6248400Y-9880600D01*
D11*
D12*
X6410100Y-13103000D02*
X6620100Y-13313000D01*
X6620100Y-13103000D02*
X6410100Y-13313000D01*
X6435500Y-10067700D02*
X6645500Y-10277700D01*
X6645500Y-10067700D02*
X6435500Y-10277700D01*
X10309000Y-13045000D02*
X10519000Y-13255000D01*
X10519000Y-13045000D02*
X10309000Y-13255000D01*
X10321700Y-10029600D02*
X10531700Y-10239600D01*
X10531700Y-10029600D02*
X10321700Y-10239600D01*
D11*
X6506677Y-13782334D02*
X6506677Y-13582334D01*
X6506677Y-13582334D02*
X6554296Y-13582334D01*
X6554296Y-13582334D02*
X6582867Y-13591858D01*
X6582867Y-13591858D02*
X6601915Y-13610905D01*
X6601915Y-13610905D02*
X6611439Y-13629953D01*
X6611439Y-13629953D02*
X6620962Y-13668048D01*
X6620962Y-13668048D02*
X6620962Y-13696619D01*
X6620962Y-13696619D02*
X6611439Y-13734715D01*
X6611439Y-13734715D02*
X6601915Y-13753762D01*
X6601915Y-13753762D02*
X6582867Y-13772810D01*
X6582867Y-13772810D02*
X6554296Y-13782334D01*
X6554296Y-13782334D02*
X6506677Y-13782334D01*
X6706677Y-13782334D02*
X6706677Y-13649000D01*
X6706677Y-13687096D02*
X6716201Y-13668048D01*
X6716201Y-13668048D02*
X6725724Y-13658524D01*
X6725724Y-13658524D02*
X6744772Y-13649000D01*
X6744772Y-13649000D02*
X6763820Y-13649000D01*
X6830486Y-13782334D02*
X6830486Y-13649000D01*
X6830486Y-13582334D02*
X6820962Y-13591858D01*
X6820962Y-13591858D02*
X6830486Y-13601381D01*
X6830486Y-13601381D02*
X6840010Y-13591858D01*
X6840010Y-13591858D02*
X6830486Y-13582334D01*
X6830486Y-13582334D02*
X6830486Y-13601381D01*
X6954296Y-13782334D02*
X6935248Y-13772810D01*
X6935248Y-13772810D02*
X6925724Y-13753762D01*
X6925724Y-13753762D02*
X6925724Y-13582334D01*
X7059058Y-13782334D02*
X7040010Y-13772810D01*
X7040010Y-13772810D02*
X7030486Y-13753762D01*
X7030486Y-13753762D02*
X7030486Y-13582334D01*
X7287629Y-13782334D02*
X7287629Y-13582334D01*
X7287629Y-13582334D02*
X7354296Y-13725191D01*
X7354296Y-13725191D02*
X7420962Y-13582334D01*
X7420962Y-13582334D02*
X7420962Y-13782334D01*
X7601915Y-13782334D02*
X7601915Y-13677572D01*
X7601915Y-13677572D02*
X7592391Y-13658524D01*
X7592391Y-13658524D02*
X7573343Y-13649000D01*
X7573343Y-13649000D02*
X7535248Y-13649000D01*
X7535248Y-13649000D02*
X7516201Y-13658524D01*
X7601915Y-13772810D02*
X7582867Y-13782334D01*
X7582867Y-13782334D02*
X7535248Y-13782334D01*
X7535248Y-13782334D02*
X7516201Y-13772810D01*
X7516201Y-13772810D02*
X7506677Y-13753762D01*
X7506677Y-13753762D02*
X7506677Y-13734715D01*
X7506677Y-13734715D02*
X7516201Y-13715667D01*
X7516201Y-13715667D02*
X7535248Y-13706143D01*
X7535248Y-13706143D02*
X7582867Y-13706143D01*
X7582867Y-13706143D02*
X7601915Y-13696619D01*
X7697153Y-13649000D02*
X7697153Y-13849000D01*
X7697153Y-13658524D02*
X7716201Y-13649000D01*
X7716201Y-13649000D02*
X7754296Y-13649000D01*
X7754296Y-13649000D02*
X7773343Y-13658524D01*
X7773343Y-13658524D02*
X7782867Y-13668048D01*
X7782867Y-13668048D02*
X7792391Y-13687096D01*
X7792391Y-13687096D02*
X7792391Y-13744238D01*
X7792391Y-13744238D02*
X7782867Y-13763286D01*
X7782867Y-13763286D02*
X7773343Y-13772810D01*
X7773343Y-13772810D02*
X7754296Y-13782334D01*
X7754296Y-13782334D02*
X7716201Y-13782334D01*
X7716201Y-13782334D02*
X7697153Y-13772810D01*
X7878105Y-13763286D02*
X7887629Y-13772810D01*
X7887629Y-13772810D02*
X7878105Y-13782334D01*
X7878105Y-13782334D02*
X7868582Y-13772810D01*
X7868582Y-13772810D02*
X7878105Y-13763286D01*
X7878105Y-13763286D02*
X7878105Y-13782334D01*
X7878105Y-13658524D02*
X7887629Y-13668048D01*
X7887629Y-13668048D02*
X7878105Y-13677572D01*
X7878105Y-13677572D02*
X7868582Y-13668048D01*
X7868582Y-13668048D02*
X7878105Y-13658524D01*
X7878105Y-13658524D02*
X7878105Y-13677572D01*
X6045900Y-14010850D02*
X6245900Y-14210850D01*
X6245900Y-14010850D02*
X6045900Y-14210850D01*
X6497153Y-14021381D02*
X6506677Y-14011858D01*
X6506677Y-14011858D02*
X6525724Y-14002334D01*
X6525724Y-14002334D02*
X6573343Y-14002334D01*
X6573343Y-14002334D02*
X6592391Y-14011858D01*
X6592391Y-14011858D02*
X6601915Y-14021381D01*
X6601915Y-14021381D02*
X6611439Y-14040429D01*
X6611439Y-14040429D02*
X6611439Y-14059477D01*
X6611439Y-14059477D02*
X6601915Y-14088048D01*
X6601915Y-14088048D02*
X6487629Y-14202334D01*
X6487629Y-14202334D02*
X6611439Y-14202334D01*
X6697153Y-14183286D02*
X6706677Y-14192810D01*
X6706677Y-14192810D02*
X6697153Y-14202334D01*
X6697153Y-14202334D02*
X6687629Y-14192810D01*
X6687629Y-14192810D02*
X6697153Y-14183286D01*
X6697153Y-14183286D02*
X6697153Y-14202334D01*
X6897153Y-14202334D02*
X6782867Y-14202334D01*
X6840010Y-14202334D02*
X6840010Y-14002334D01*
X6840010Y-14002334D02*
X6820962Y-14030905D01*
X6820962Y-14030905D02*
X6801915Y-14049953D01*
X6801915Y-14049953D02*
X6782867Y-14059477D01*
X7020962Y-14002334D02*
X7040010Y-14002334D01*
X7040010Y-14002334D02*
X7059058Y-14011858D01*
X7059058Y-14011858D02*
X7068582Y-14021381D01*
X7068582Y-14021381D02*
X7078105Y-14040429D01*
X7078105Y-14040429D02*
X7087629Y-14078524D01*
X7087629Y-14078524D02*
X7087629Y-14126143D01*
X7087629Y-14126143D02*
X7078105Y-14164238D01*
X7078105Y-14164238D02*
X7068582Y-14183286D01*
X7068582Y-14183286D02*
X7059058Y-14192810D01*
X7059058Y-14192810D02*
X7040010Y-14202334D01*
X7040010Y-14202334D02*
X7020962Y-14202334D01*
X7020962Y-14202334D02*
X7001915Y-14192810D01*
X7001915Y-14192810D02*
X6992391Y-14183286D01*
X6992391Y-14183286D02*
X6982867Y-14164238D01*
X6982867Y-14164238D02*
X6973343Y-14126143D01*
X6973343Y-14126143D02*
X6973343Y-14078524D01*
X6973343Y-14078524D02*
X6982867Y-14040429D01*
X6982867Y-14040429D02*
X6992391Y-14021381D01*
X6992391Y-14021381D02*
X7001915Y-14011858D01*
X7001915Y-14011858D02*
X7020962Y-14002334D01*
X7211439Y-14002334D02*
X7230486Y-14002334D01*
X7230486Y-14002334D02*
X7249534Y-14011858D01*
X7249534Y-14011858D02*
X7259058Y-14021381D01*
X7259058Y-14021381D02*
X7268582Y-14040429D01*
X7268582Y-14040429D02*
X7278105Y-14078524D01*
X7278105Y-14078524D02*
X7278105Y-14126143D01*
X7278105Y-14126143D02*
X7268582Y-14164238D01*
X7268582Y-14164238D02*
X7259058Y-14183286D01*
X7259058Y-14183286D02*
X7249534Y-14192810D01*
X7249534Y-14192810D02*
X7230486Y-14202334D01*
X7230486Y-14202334D02*
X7211439Y-14202334D01*
X7211439Y-14202334D02*
X7192391Y-14192810D01*
X7192391Y-14192810D02*
X7182867Y-14183286D01*
X7182867Y-14183286D02*
X7173343Y-14164238D01*
X7173343Y-14164238D02*
X7163820Y-14126143D01*
X7163820Y-14126143D02*
X7163820Y-14078524D01*
X7163820Y-14078524D02*
X7173343Y-14040429D01*
X7173343Y-14040429D02*
X7182867Y-14021381D01*
X7182867Y-14021381D02*
X7192391Y-14011858D01*
X7192391Y-14011858D02*
X7211439Y-14002334D01*
X7363820Y-14202334D02*
X7363820Y-14069000D01*
X7363820Y-14088048D02*
X7373343Y-14078524D01*
X7373343Y-14078524D02*
X7392391Y-14069000D01*
X7392391Y-14069000D02*
X7420963Y-14069000D01*
X7420963Y-14069000D02*
X7440010Y-14078524D01*
X7440010Y-14078524D02*
X7449534Y-14097572D01*
X7449534Y-14097572D02*
X7449534Y-14202334D01*
X7449534Y-14097572D02*
X7459058Y-14078524D01*
X7459058Y-14078524D02*
X7478105Y-14069000D01*
X7478105Y-14069000D02*
X7506677Y-14069000D01*
X7506677Y-14069000D02*
X7525724Y-14078524D01*
X7525724Y-14078524D02*
X7535248Y-14097572D01*
X7535248Y-14097572D02*
X7535248Y-14202334D01*
X7630486Y-14202334D02*
X7630486Y-14069000D01*
X7630486Y-14088048D02*
X7640010Y-14078524D01*
X7640010Y-14078524D02*
X7659058Y-14069000D01*
X7659058Y-14069000D02*
X7687629Y-14069000D01*
X7687629Y-14069000D02*
X7706677Y-14078524D01*
X7706677Y-14078524D02*
X7716201Y-14097572D01*
X7716201Y-14097572D02*
X7716201Y-14202334D01*
X7716201Y-14097572D02*
X7725724Y-14078524D01*
X7725724Y-14078524D02*
X7744772Y-14069000D01*
X7744772Y-14069000D02*
X7773343Y-14069000D01*
X7773343Y-14069000D02*
X7792391Y-14078524D01*
X7792391Y-14078524D02*
X7801915Y-14097572D01*
X7801915Y-14097572D02*
X7801915Y-14202334D01*
X8192391Y-13992810D02*
X8020963Y-14249953D01*
X8449534Y-14002334D02*
X8468582Y-14002334D01*
X8468582Y-14002334D02*
X8487629Y-14011858D01*
X8487629Y-14011858D02*
X8497153Y-14021381D01*
X8497153Y-14021381D02*
X8506677Y-14040429D01*
X8506677Y-14040429D02*
X8516201Y-14078524D01*
X8516201Y-14078524D02*
X8516201Y-14126143D01*
X8516201Y-14126143D02*
X8506677Y-14164238D01*
X8506677Y-14164238D02*
X8497153Y-14183286D01*
X8497153Y-14183286D02*
X8487629Y-14192810D01*
X8487629Y-14192810D02*
X8468582Y-14202334D01*
X8468582Y-14202334D02*
X8449534Y-14202334D01*
X8449534Y-14202334D02*
X8430487Y-14192810D01*
X8430487Y-14192810D02*
X8420963Y-14183286D01*
X8420963Y-14183286D02*
X8411439Y-14164238D01*
X8411439Y-14164238D02*
X8401915Y-14126143D01*
X8401915Y-14126143D02*
X8401915Y-14078524D01*
X8401915Y-14078524D02*
X8411439Y-14040429D01*
X8411439Y-14040429D02*
X8420963Y-14021381D01*
X8420963Y-14021381D02*
X8430487Y-14011858D01*
X8430487Y-14011858D02*
X8449534Y-14002334D01*
X8601915Y-14183286D02*
X8611439Y-14192810D01*
X8611439Y-14192810D02*
X8601915Y-14202334D01*
X8601915Y-14202334D02*
X8592391Y-14192810D01*
X8592391Y-14192810D02*
X8601915Y-14183286D01*
X8601915Y-14183286D02*
X8601915Y-14202334D01*
X8735248Y-14002334D02*
X8754296Y-14002334D01*
X8754296Y-14002334D02*
X8773344Y-14011858D01*
X8773344Y-14011858D02*
X8782868Y-14021381D01*
X8782868Y-14021381D02*
X8792391Y-14040429D01*
X8792391Y-14040429D02*
X8801915Y-14078524D01*
X8801915Y-14078524D02*
X8801915Y-14126143D01*
X8801915Y-14126143D02*
X8792391Y-14164238D01*
X8792391Y-14164238D02*
X8782868Y-14183286D01*
X8782868Y-14183286D02*
X8773344Y-14192810D01*
X8773344Y-14192810D02*
X8754296Y-14202334D01*
X8754296Y-14202334D02*
X8735248Y-14202334D01*
X8735248Y-14202334D02*
X8716201Y-14192810D01*
X8716201Y-14192810D02*
X8706677Y-14183286D01*
X8706677Y-14183286D02*
X8697153Y-14164238D01*
X8697153Y-14164238D02*
X8687629Y-14126143D01*
X8687629Y-14126143D02*
X8687629Y-14078524D01*
X8687629Y-14078524D02*
X8697153Y-14040429D01*
X8697153Y-14040429D02*
X8706677Y-14021381D01*
X8706677Y-14021381D02*
X8716201Y-14011858D01*
X8716201Y-14011858D02*
X8735248Y-14002334D01*
X8916201Y-14088048D02*
X8897153Y-14078524D01*
X8897153Y-14078524D02*
X8887629Y-14069000D01*
X8887629Y-14069000D02*
X8878106Y-14049953D01*
X8878106Y-14049953D02*
X8878106Y-14040429D01*
X8878106Y-14040429D02*
X8887629Y-14021381D01*
X8887629Y-14021381D02*
X8897153Y-14011858D01*
X8897153Y-14011858D02*
X8916201Y-14002334D01*
X8916201Y-14002334D02*
X8954296Y-14002334D01*
X8954296Y-14002334D02*
X8973344Y-14011858D01*
X8973344Y-14011858D02*
X8982868Y-14021381D01*
X8982868Y-14021381D02*
X8992391Y-14040429D01*
X8992391Y-14040429D02*
X8992391Y-14049953D01*
X8992391Y-14049953D02*
X8982868Y-14069000D01*
X8982868Y-14069000D02*
X8973344Y-14078524D01*
X8973344Y-14078524D02*
X8954296Y-14088048D01*
X8954296Y-14088048D02*
X8916201Y-14088048D01*
X8916201Y-14088048D02*
X8897153Y-14097572D01*
X8897153Y-14097572D02*
X8887629Y-14107096D01*
X8887629Y-14107096D02*
X8878106Y-14126143D01*
X8878106Y-14126143D02*
X8878106Y-14164238D01*
X8878106Y-14164238D02*
X8887629Y-14183286D01*
X8887629Y-14183286D02*
X8897153Y-14192810D01*
X8897153Y-14192810D02*
X8916201Y-14202334D01*
X8916201Y-14202334D02*
X8954296Y-14202334D01*
X8954296Y-14202334D02*
X8973344Y-14192810D01*
X8973344Y-14192810D02*
X8982868Y-14183286D01*
X8982868Y-14183286D02*
X8992391Y-14164238D01*
X8992391Y-14164238D02*
X8992391Y-14126143D01*
X8992391Y-14126143D02*
X8982868Y-14107096D01*
X8982868Y-14107096D02*
X8973344Y-14097572D01*
X8973344Y-14097572D02*
X8954296Y-14088048D01*
X9068582Y-14021381D02*
X9078106Y-14011858D01*
X9078106Y-14011858D02*
X9097153Y-14002334D01*
X9097153Y-14002334D02*
X9144772Y-14002334D01*
X9144772Y-14002334D02*
X9163820Y-14011858D01*
X9163820Y-14011858D02*
X9173344Y-14021381D01*
X9173344Y-14021381D02*
X9182868Y-14040429D01*
X9182868Y-14040429D02*
X9182868Y-14059477D01*
X9182868Y-14059477D02*
X9173344Y-14088048D01*
X9173344Y-14088048D02*
X9059058Y-14202334D01*
X9059058Y-14202334D02*
X9182868Y-14202334D01*
X9249534Y-14002334D02*
X9382868Y-14002334D01*
X9382868Y-14002334D02*
X9297153Y-14202334D01*
X9449534Y-14002334D02*
X9449534Y-14040429D01*
X9525725Y-14002334D02*
X9525725Y-14040429D01*
X9820963Y-14278524D02*
X9811439Y-14269000D01*
X9811439Y-14269000D02*
X9792391Y-14240429D01*
X9792391Y-14240429D02*
X9782868Y-14221381D01*
X9782868Y-14221381D02*
X9773344Y-14192810D01*
X9773344Y-14192810D02*
X9763820Y-14145191D01*
X9763820Y-14145191D02*
X9763820Y-14107096D01*
X9763820Y-14107096D02*
X9773344Y-14059477D01*
X9773344Y-14059477D02*
X9782868Y-14030905D01*
X9782868Y-14030905D02*
X9792391Y-14011858D01*
X9792391Y-14011858D02*
X9811439Y-13983286D01*
X9811439Y-13983286D02*
X9820963Y-13973762D01*
X9982868Y-14069000D02*
X9982868Y-14202334D01*
X9935249Y-13992810D02*
X9887630Y-14135667D01*
X9887630Y-14135667D02*
X10011439Y-14135667D01*
X10240011Y-14202334D02*
X10240011Y-14002334D01*
X10325725Y-14202334D02*
X10325725Y-14097572D01*
X10325725Y-14097572D02*
X10316201Y-14078524D01*
X10316201Y-14078524D02*
X10297153Y-14069000D01*
X10297153Y-14069000D02*
X10268582Y-14069000D01*
X10268582Y-14069000D02*
X10249534Y-14078524D01*
X10249534Y-14078524D02*
X10240011Y-14088048D01*
X10449534Y-14202334D02*
X10430487Y-14192810D01*
X10430487Y-14192810D02*
X10420963Y-14183286D01*
X10420963Y-14183286D02*
X10411439Y-14164238D01*
X10411439Y-14164238D02*
X10411439Y-14107096D01*
X10411439Y-14107096D02*
X10420963Y-14088048D01*
X10420963Y-14088048D02*
X10430487Y-14078524D01*
X10430487Y-14078524D02*
X10449534Y-14069000D01*
X10449534Y-14069000D02*
X10478106Y-14069000D01*
X10478106Y-14069000D02*
X10497153Y-14078524D01*
X10497153Y-14078524D02*
X10506677Y-14088048D01*
X10506677Y-14088048D02*
X10516201Y-14107096D01*
X10516201Y-14107096D02*
X10516201Y-14164238D01*
X10516201Y-14164238D02*
X10506677Y-14183286D01*
X10506677Y-14183286D02*
X10497153Y-14192810D01*
X10497153Y-14192810D02*
X10478106Y-14202334D01*
X10478106Y-14202334D02*
X10449534Y-14202334D01*
X10630487Y-14202334D02*
X10611439Y-14192810D01*
X10611439Y-14192810D02*
X10601915Y-14173762D01*
X10601915Y-14173762D02*
X10601915Y-14002334D01*
X10782868Y-14192810D02*
X10763820Y-14202334D01*
X10763820Y-14202334D02*
X10725725Y-14202334D01*
X10725725Y-14202334D02*
X10706677Y-14192810D01*
X10706677Y-14192810D02*
X10697153Y-14173762D01*
X10697153Y-14173762D02*
X10697153Y-14097572D01*
X10697153Y-14097572D02*
X10706677Y-14078524D01*
X10706677Y-14078524D02*
X10725725Y-14069000D01*
X10725725Y-14069000D02*
X10763820Y-14069000D01*
X10763820Y-14069000D02*
X10782868Y-14078524D01*
X10782868Y-14078524D02*
X10792392Y-14097572D01*
X10792392Y-14097572D02*
X10792392Y-14116619D01*
X10792392Y-14116619D02*
X10697153Y-14135667D01*
X10868582Y-14192810D02*
X10887630Y-14202334D01*
X10887630Y-14202334D02*
X10925725Y-14202334D01*
X10925725Y-14202334D02*
X10944773Y-14192810D01*
X10944773Y-14192810D02*
X10954296Y-14173762D01*
X10954296Y-14173762D02*
X10954296Y-14164238D01*
X10954296Y-14164238D02*
X10944773Y-14145191D01*
X10944773Y-14145191D02*
X10925725Y-14135667D01*
X10925725Y-14135667D02*
X10897153Y-14135667D01*
X10897153Y-14135667D02*
X10878106Y-14126143D01*
X10878106Y-14126143D02*
X10868582Y-14107096D01*
X10868582Y-14107096D02*
X10868582Y-14097572D01*
X10868582Y-14097572D02*
X10878106Y-14078524D01*
X10878106Y-14078524D02*
X10897153Y-14069000D01*
X10897153Y-14069000D02*
X10925725Y-14069000D01*
X10925725Y-14069000D02*
X10944773Y-14078524D01*
X11020963Y-14278524D02*
X11030487Y-14269000D01*
X11030487Y-14269000D02*
X11049534Y-14240429D01*
X11049534Y-14240429D02*
X11059058Y-14221381D01*
X11059058Y-14221381D02*
X11068582Y-14192810D01*
X11068582Y-14192810D02*
X11078106Y-14145191D01*
X11078106Y-14145191D02*
X11078106Y-14107096D01*
X11078106Y-14107096D02*
X11068582Y-14059477D01*
X11068582Y-14059477D02*
X11059058Y-14030905D01*
X11059058Y-14030905D02*
X11049534Y-14011858D01*
X11049534Y-14011858D02*
X11030487Y-13983286D01*
X11030487Y-13983286D02*
X11020963Y-13973762D01*
X11382868Y-14278524D02*
X11373344Y-14269000D01*
X11373344Y-14269000D02*
X11354296Y-14240429D01*
X11354296Y-14240429D02*
X11344772Y-14221381D01*
X11344772Y-14221381D02*
X11335249Y-14192810D01*
X11335249Y-14192810D02*
X11325725Y-14145191D01*
X11325725Y-14145191D02*
X11325725Y-14107096D01*
X11325725Y-14107096D02*
X11335249Y-14059477D01*
X11335249Y-14059477D02*
X11344772Y-14030905D01*
X11344772Y-14030905D02*
X11354296Y-14011858D01*
X11354296Y-14011858D02*
X11373344Y-13983286D01*
X11373344Y-13983286D02*
X11382868Y-13973762D01*
X11459058Y-14069000D02*
X11459058Y-14202334D01*
X11459058Y-14088048D02*
X11468582Y-14078524D01*
X11468582Y-14078524D02*
X11487630Y-14069000D01*
X11487630Y-14069000D02*
X11516201Y-14069000D01*
X11516201Y-14069000D02*
X11535249Y-14078524D01*
X11535249Y-14078524D02*
X11544772Y-14097572D01*
X11544772Y-14097572D02*
X11544772Y-14202334D01*
X11668582Y-14202334D02*
X11649534Y-14192810D01*
X11649534Y-14192810D02*
X11640011Y-14183286D01*
X11640011Y-14183286D02*
X11630487Y-14164238D01*
X11630487Y-14164238D02*
X11630487Y-14107096D01*
X11630487Y-14107096D02*
X11640011Y-14088048D01*
X11640011Y-14088048D02*
X11649534Y-14078524D01*
X11649534Y-14078524D02*
X11668582Y-14069000D01*
X11668582Y-14069000D02*
X11697153Y-14069000D01*
X11697153Y-14069000D02*
X11716201Y-14078524D01*
X11716201Y-14078524D02*
X11725725Y-14088048D01*
X11725725Y-14088048D02*
X11735249Y-14107096D01*
X11735249Y-14107096D02*
X11735249Y-14164238D01*
X11735249Y-14164238D02*
X11725725Y-14183286D01*
X11725725Y-14183286D02*
X11716201Y-14192810D01*
X11716201Y-14192810D02*
X11697153Y-14202334D01*
X11697153Y-14202334D02*
X11668582Y-14202334D01*
X11792392Y-14069000D02*
X11868582Y-14069000D01*
X11820963Y-14002334D02*
X11820963Y-14173762D01*
X11820963Y-14173762D02*
X11830487Y-14192810D01*
X11830487Y-14192810D02*
X11849534Y-14202334D01*
X11849534Y-14202334D02*
X11868582Y-14202334D01*
X12087630Y-14069000D02*
X12087630Y-14269000D01*
X12087630Y-14078524D02*
X12106677Y-14069000D01*
X12106677Y-14069000D02*
X12144773Y-14069000D01*
X12144773Y-14069000D02*
X12163820Y-14078524D01*
X12163820Y-14078524D02*
X12173344Y-14088048D01*
X12173344Y-14088048D02*
X12182868Y-14107096D01*
X12182868Y-14107096D02*
X12182868Y-14164238D01*
X12182868Y-14164238D02*
X12173344Y-14183286D01*
X12173344Y-14183286D02*
X12163820Y-14192810D01*
X12163820Y-14192810D02*
X12144773Y-14202334D01*
X12144773Y-14202334D02*
X12106677Y-14202334D01*
X12106677Y-14202334D02*
X12087630Y-14192810D01*
X12297153Y-14202334D02*
X12278106Y-14192810D01*
X12278106Y-14192810D02*
X12268582Y-14173762D01*
X12268582Y-14173762D02*
X12268582Y-14002334D01*
X12459058Y-14202334D02*
X12459058Y-14097572D01*
X12459058Y-14097572D02*
X12449534Y-14078524D01*
X12449534Y-14078524D02*
X12430487Y-14069000D01*
X12430487Y-14069000D02*
X12392392Y-14069000D01*
X12392392Y-14069000D02*
X12373344Y-14078524D01*
X12459058Y-14192810D02*
X12440011Y-14202334D01*
X12440011Y-14202334D02*
X12392392Y-14202334D01*
X12392392Y-14202334D02*
X12373344Y-14192810D01*
X12373344Y-14192810D02*
X12363820Y-14173762D01*
X12363820Y-14173762D02*
X12363820Y-14154715D01*
X12363820Y-14154715D02*
X12373344Y-14135667D01*
X12373344Y-14135667D02*
X12392392Y-14126143D01*
X12392392Y-14126143D02*
X12440011Y-14126143D01*
X12440011Y-14126143D02*
X12459058Y-14116619D01*
X12525725Y-14069000D02*
X12601915Y-14069000D01*
X12554296Y-14002334D02*
X12554296Y-14173762D01*
X12554296Y-14173762D02*
X12563820Y-14192810D01*
X12563820Y-14192810D02*
X12582868Y-14202334D01*
X12582868Y-14202334D02*
X12601915Y-14202334D01*
X12744773Y-14192810D02*
X12725725Y-14202334D01*
X12725725Y-14202334D02*
X12687630Y-14202334D01*
X12687630Y-14202334D02*
X12668582Y-14192810D01*
X12668582Y-14192810D02*
X12659058Y-14173762D01*
X12659058Y-14173762D02*
X12659058Y-14097572D01*
X12659058Y-14097572D02*
X12668582Y-14078524D01*
X12668582Y-14078524D02*
X12687630Y-14069000D01*
X12687630Y-14069000D02*
X12725725Y-14069000D01*
X12725725Y-14069000D02*
X12744773Y-14078524D01*
X12744773Y-14078524D02*
X12754296Y-14097572D01*
X12754296Y-14097572D02*
X12754296Y-14116619D01*
X12754296Y-14116619D02*
X12659058Y-14135667D01*
X12925725Y-14202334D02*
X12925725Y-14002334D01*
X12925725Y-14192810D02*
X12906677Y-14202334D01*
X12906677Y-14202334D02*
X12868582Y-14202334D01*
X12868582Y-14202334D02*
X12849534Y-14192810D01*
X12849534Y-14192810D02*
X12840011Y-14183286D01*
X12840011Y-14183286D02*
X12830487Y-14164238D01*
X12830487Y-14164238D02*
X12830487Y-14107096D01*
X12830487Y-14107096D02*
X12840011Y-14088048D01*
X12840011Y-14088048D02*
X12849534Y-14078524D01*
X12849534Y-14078524D02*
X12868582Y-14069000D01*
X12868582Y-14069000D02*
X12906677Y-14069000D01*
X12906677Y-14069000D02*
X12925725Y-14078524D01*
X13001915Y-14278524D02*
X13011439Y-14269000D01*
X13011439Y-14269000D02*
X13030487Y-14240429D01*
X13030487Y-14240429D02*
X13040011Y-14221381D01*
X13040011Y-14221381D02*
X13049534Y-14192810D01*
X13049534Y-14192810D02*
X13059058Y-14145191D01*
X13059058Y-14145191D02*
X13059058Y-14107096D01*
X13059058Y-14107096D02*
X13049534Y-14059477D01*
X13049534Y-14059477D02*
X13040011Y-14030905D01*
X13040011Y-14030905D02*
X13030487Y-14011858D01*
X13030487Y-14011858D02*
X13011439Y-13983286D01*
X13011439Y-13983286D02*
X13001915Y-13973762D01*
M02*
