M48
; DRILL file {KiCad 9.0.4} date 2025-11-20T06:56:56+0200
; FORMAT={-:-/ absolute / metric / decimal}
; #@! TF.CreationDate,2025-11-20T06:56:56+02:00
; #@! TF.GenerationSoftware,Kicad,Pcbnew,9.0.4
; #@! TF.FileFunction,Plated,1,2,PTH
FMAT,2
METRIC
; #@! TA.AperFunction,Plated,PTH,ViaDrill
T1C0.300
; #@! TA.AperFunction,Plated,PTH,ComponentDrill
T2C0.800
; #@! TA.AperFunction,Plated,PTH,ComponentDrill
T3C1.000
%
G90
G05
T1
X69.532Y-107.632
X74.676Y-108.966
X75.565Y-123.952
X76.2Y-114.427
X76.2Y-124.841
X76.835Y-116.967
X78.74Y-104.648
X80.01Y-107.315
X81.343Y-108.394
X81.534Y-110.363
X81.788Y-107.061
X81.915Y-111.506
X84.391Y-118.173
X84.963Y-111.379
X85.217Y-112.903
X85.407Y-118.173
X86.106Y-115.189
X86.296Y-118.173
X86.614Y-109.855
X86.614Y-113.792
X87.338Y-118.148
X88.392Y-128.651
X88.9Y-106.045
X88.9Y-113.792
X89.662Y-110.617
X89.662Y-111.76
X90.932Y-118.872
X92.202Y-117.094
X92.964Y-118.11
X93.472Y-108.712
X93.726Y-116.332
X93.853Y-112.268
X94.615Y-116.459
X94.996Y-104.394
X96.266Y-111.506
X96.774Y-116.459
X97.028Y-114.554
X97.028Y-130.556
T2
X70.489Y-111.887
X70.489Y-114.427
X70.489Y-116.967
X70.489Y-119.507
X70.616Y-100.838
X70.616Y-103.378
X70.616Y-105.918
X70.616Y-108.458
X78.359Y-111.887
X78.359Y-114.427
X78.359Y-116.967
X78.359Y-119.507
X78.486Y-100.838
X78.486Y-103.378
X78.486Y-105.918
X78.486Y-108.458
T3
X66.167Y-112.141
X66.167Y-114.681
X69.977Y-132.08
X72.517Y-132.08
X75.057Y-132.08
X77.597Y-132.08
X80.137Y-132.08
X82.677Y-132.08
X85.217Y-132.08
X87.757Y-132.08
X90.297Y-132.08
X90.678Y-101.219
X93.218Y-101.219
X95.758Y-101.219
X98.298Y-101.219
X99.441Y-109.601
X99.441Y-112.141
X99.441Y-114.681
X101.727Y-119.761
X101.727Y-122.301
X101.727Y-124.841
X101.727Y-127.381
X101.981Y-109.601
X101.981Y-112.141
X101.981Y-114.681
M30
