%TF.GenerationSoftware,KiCad,Pcbnew,9.0.4*%
%TF.CreationDate,2025-11-20T06:57:18+02:00*%
%TF.ProjectId,test_5,74657374-5f35-42e6-9b69-6361645f7063,rev?*%
%TF.SameCoordinates,Original*%
%TF.FileFunction,Soldermask,Top*%
%TF.FilePolarity,Negative*%
%FSLAX46Y46*%
G04 Gerber Fmt 4.6, Leading zero omitted, Abs format (unit mm)*
G04 Created by KiCad (PCBNEW 9.0.4) date 2025-11-20 06:57:18*
%MOMM*%
%LPD*%
G01*
G04 APERTURE LIST*
%ADD10C,2.100000*%
%ADD11C,1.512000*%
%ADD12R,1.700000X1.700000*%
%ADD13C,1.700000*%
G04 APERTURE END LIST*
%TO.C,C2*%
G36*
G01*
X95832000Y-118712000D02*
X95832000Y-117762000D01*
G75*
G02*
X96082000Y-117512000I250000J0D01*
G01*
X96582000Y-117512000D01*
G75*
G02*
X96832000Y-117762000I0J-250000D01*
G01*
X96832000Y-118712000D01*
G75*
G02*
X96582000Y-118962000I-250000J0D01*
G01*
X96082000Y-118962000D01*
G75*
G02*
X95832000Y-118712000I0J250000D01*
G01*
G37*
G36*
G01*
X97732000Y-118712000D02*
X97732000Y-117762000D01*
G75*
G02*
X97982000Y-117512000I250000J0D01*
G01*
X98482000Y-117512000D01*
G75*
G02*
X98732000Y-117762000I0J-250000D01*
G01*
X98732000Y-118712000D01*
G75*
G02*
X98482000Y-118962000I-250000J0D01*
G01*
X97982000Y-118962000D01*
G75*
G02*
X97732000Y-118712000I0J250000D01*
G01*
G37*
%TD*%
%TO.C,Y2*%
G36*
G01*
X84894500Y-122234999D02*
X84894500Y-120335001D01*
G75*
G02*
X85144501Y-120085000I250001J0D01*
G01*
X88144499Y-120085000D01*
G75*
G02*
X88394500Y-120335001I0J-250001D01*
G01*
X88394500Y-122234999D01*
G75*
G02*
X88144499Y-122485000I-250001J0D01*
G01*
X85144501Y-122485000D01*
G75*
G02*
X84894500Y-122234999I0J250001D01*
G01*
G37*
G36*
G01*
X90094500Y-122234999D02*
X90094500Y-120335001D01*
G75*
G02*
X90344501Y-120085000I250001J0D01*
G01*
X93344499Y-120085000D01*
G75*
G02*
X93594500Y-120335001I0J-250001D01*
G01*
X93594500Y-122234999D01*
G75*
G02*
X93344499Y-122485000I-250001J0D01*
G01*
X90344501Y-122485000D01*
G75*
G02*
X90094500Y-122234999I0J250001D01*
G01*
G37*
%TD*%
%TO.C,R2*%
G36*
G01*
X95706500Y-129159000D02*
X95706500Y-128259000D01*
G75*
G02*
X95956500Y-128009000I250000J0D01*
G01*
X96481500Y-128009000D01*
G75*
G02*
X96731500Y-128259000I0J-250000D01*
G01*
X96731500Y-129159000D01*
G75*
G02*
X96481500Y-129409000I-250000J0D01*
G01*
X95956500Y-129409000D01*
G75*
G02*
X95706500Y-129159000I0J250000D01*
G01*
G37*
G36*
G01*
X97531500Y-129159000D02*
X97531500Y-128259000D01*
G75*
G02*
X97781500Y-128009000I250000J0D01*
G01*
X98306500Y-128009000D01*
G75*
G02*
X98556500Y-128259000I0J-250000D01*
G01*
X98556500Y-129159000D01*
G75*
G02*
X98306500Y-129409000I-250000J0D01*
G01*
X97781500Y-129409000D01*
G75*
G02*
X97531500Y-129159000I0J250000D01*
G01*
G37*
%TD*%
D10*
%TO.C,H3*%
X104267000Y-101346000D03*
%TD*%
%TO.C,R7*%
G36*
G01*
X88008000Y-103255500D02*
X84458000Y-103255500D01*
G75*
G02*
X84208000Y-103005500I0J250000D01*
G01*
X84208000Y-102480500D01*
G75*
G02*
X84458000Y-102230500I250000J0D01*
G01*
X88008000Y-102230500D01*
G75*
G02*
X88258000Y-102480500I0J-250000D01*
G01*
X88258000Y-103005500D01*
G75*
G02*
X88008000Y-103255500I-250000J0D01*
G01*
G37*
G36*
G01*
X88008000Y-101380500D02*
X84458000Y-101380500D01*
G75*
G02*
X84208000Y-101130500I0J250000D01*
G01*
X84208000Y-100605500D01*
G75*
G02*
X84458000Y-100355500I250000J0D01*
G01*
X88008000Y-100355500D01*
G75*
G02*
X88258000Y-100605500I0J-250000D01*
G01*
X88258000Y-101130500D01*
G75*
G02*
X88008000Y-101380500I-250000J0D01*
G01*
G37*
%TD*%
%TO.C,U3*%
G36*
G01*
X72322000Y-122852750D02*
X72322000Y-122257250D01*
G75*
G02*
X72421250Y-122158000I99250J0D01*
G01*
X74396750Y-122158000D01*
G75*
G02*
X74496000Y-122257250I0J-99250D01*
G01*
X74496000Y-122852750D01*
G75*
G02*
X74396750Y-122952000I-99250J0D01*
G01*
X72421250Y-122952000D01*
G75*
G02*
X72322000Y-122852750I0J99250D01*
G01*
G37*
G36*
G01*
X72322000Y-124122750D02*
X72322000Y-123527250D01*
G75*
G02*
X72421250Y-123428000I99250J0D01*
G01*
X74396750Y-123428000D01*
G75*
G02*
X74496000Y-123527250I0J-99250D01*
G01*
X74496000Y-124122750D01*
G75*
G02*
X74396750Y-124222000I-99250J0D01*
G01*
X72421250Y-124222000D01*
G75*
G02*
X72322000Y-124122750I0J99250D01*
G01*
G37*
G36*
G01*
X72322000Y-125392750D02*
X72322000Y-124797250D01*
G75*
G02*
X72421250Y-124698000I99250J0D01*
G01*
X74396750Y-124698000D01*
G75*
G02*
X74496000Y-124797250I0J-99250D01*
G01*
X74496000Y-125392750D01*
G75*
G02*
X74396750Y-125492000I-99250J0D01*
G01*
X72421250Y-125492000D01*
G75*
G02*
X72322000Y-125392750I0J99250D01*
G01*
G37*
G36*
G01*
X72322000Y-126662750D02*
X72322000Y-126067250D01*
G75*
G02*
X72421250Y-125968000I99250J0D01*
G01*
X74396750Y-125968000D01*
G75*
G02*
X74496000Y-126067250I0J-99250D01*
G01*
X74496000Y-126662750D01*
G75*
G02*
X74396750Y-126762000I-99250J0D01*
G01*
X72421250Y-126762000D01*
G75*
G02*
X72322000Y-126662750I0J99250D01*
G01*
G37*
G36*
G01*
X77272000Y-126662750D02*
X77272000Y-126067250D01*
G75*
G02*
X77371250Y-125968000I99250J0D01*
G01*
X79346750Y-125968000D01*
G75*
G02*
X79446000Y-126067250I0J-99250D01*
G01*
X79446000Y-126662750D01*
G75*
G02*
X79346750Y-126762000I-99250J0D01*
G01*
X77371250Y-126762000D01*
G75*
G02*
X77272000Y-126662750I0J99250D01*
G01*
G37*
G36*
G01*
X77272000Y-125392750D02*
X77272000Y-124797250D01*
G75*
G02*
X77371250Y-124698000I99250J0D01*
G01*
X79346750Y-124698000D01*
G75*
G02*
X79446000Y-124797250I0J-99250D01*
G01*
X79446000Y-125392750D01*
G75*
G02*
X79346750Y-125492000I-99250J0D01*
G01*
X77371250Y-125492000D01*
G75*
G02*
X77272000Y-125392750I0J99250D01*
G01*
G37*
G36*
G01*
X77272000Y-124122750D02*
X77272000Y-123527250D01*
G75*
G02*
X77371250Y-123428000I99250J0D01*
G01*
X79346750Y-123428000D01*
G75*
G02*
X79446000Y-123527250I0J-99250D01*
G01*
X79446000Y-124122750D01*
G75*
G02*
X79346750Y-124222000I-99250J0D01*
G01*
X77371250Y-124222000D01*
G75*
G02*
X77272000Y-124122750I0J99250D01*
G01*
G37*
G36*
G01*
X77272000Y-122852750D02*
X77272000Y-122257250D01*
G75*
G02*
X77371250Y-122158000I99250J0D01*
G01*
X79346750Y-122158000D01*
G75*
G02*
X79446000Y-122257250I0J-99250D01*
G01*
X79446000Y-122852750D01*
G75*
G02*
X79346750Y-122952000I-99250J0D01*
G01*
X77371250Y-122952000D01*
G75*
G02*
X77272000Y-122852750I0J99250D01*
G01*
G37*
%TD*%
%TO.C,U1*%
G36*
G01*
X69860000Y-101492000D02*
X69860000Y-100184000D01*
G75*
G02*
X69962000Y-100082000I102000J0D01*
G01*
X71270000Y-100082000D01*
G75*
G02*
X71372000Y-100184000I0J-102000D01*
G01*
X71372000Y-101492000D01*
G75*
G02*
X71270000Y-101594000I-102000J0D01*
G01*
X69962000Y-101594000D01*
G75*
G02*
X69860000Y-101492000I0J102000D01*
G01*
G37*
D11*
X70616000Y-103378000D03*
X70616000Y-105918000D03*
X70616000Y-108458000D03*
X78486000Y-108458000D03*
X78486000Y-105918000D03*
X78486000Y-103378000D03*
X78486000Y-100838000D03*
%TD*%
%TO.C,U4*%
G36*
G01*
X82750000Y-109877750D02*
X82750000Y-109312250D01*
G75*
G02*
X82844250Y-109218000I94250J0D01*
G01*
X84329750Y-109218000D01*
G75*
G02*
X84424000Y-109312250I0J-94250D01*
G01*
X84424000Y-109877750D01*
G75*
G02*
X84329750Y-109972000I-94250J0D01*
G01*
X82844250Y-109972000D01*
G75*
G02*
X82750000Y-109877750I0J94250D01*
G01*
G37*
G36*
G01*
X82750000Y-110677750D02*
X82750000Y-110112250D01*
G75*
G02*
X82844250Y-110018000I94250J0D01*
G01*
X84329750Y-110018000D01*
G75*
G02*
X84424000Y-110112250I0J-94250D01*
G01*
X84424000Y-110677750D01*
G75*
G02*
X84329750Y-110772000I-94250J0D01*
G01*
X82844250Y-110772000D01*
G75*
G02*
X82750000Y-110677750I0J94250D01*
G01*
G37*
G36*
G01*
X82750000Y-111477750D02*
X82750000Y-110912250D01*
G75*
G02*
X82844250Y-110818000I94250J0D01*
G01*
X84329750Y-110818000D01*
G75*
G02*
X84424000Y-110912250I0J-94250D01*
G01*
X84424000Y-111477750D01*
G75*
G02*
X84329750Y-111572000I-94250J0D01*
G01*
X82844250Y-111572000D01*
G75*
G02*
X82750000Y-111477750I0J94250D01*
G01*
G37*
G36*
G01*
X82750000Y-112277750D02*
X82750000Y-111712250D01*
G75*
G02*
X82844250Y-111618000I94250J0D01*
G01*
X84329750Y-111618000D01*
G75*
G02*
X84424000Y-111712250I0J-94250D01*
G01*
X84424000Y-112277750D01*
G75*
G02*
X84329750Y-112372000I-94250J0D01*
G01*
X82844250Y-112372000D01*
G75*
G02*
X82750000Y-112277750I0J94250D01*
G01*
G37*
G36*
G01*
X82750000Y-113077750D02*
X82750000Y-112512250D01*
G75*
G02*
X82844250Y-112418000I94250J0D01*
G01*
X84329750Y-112418000D01*
G75*
G02*
X84424000Y-112512250I0J-94250D01*
G01*
X84424000Y-113077750D01*
G75*
G02*
X84329750Y-113172000I-94250J0D01*
G01*
X82844250Y-113172000D01*
G75*
G02*
X82750000Y-113077750I0J94250D01*
G01*
G37*
G36*
G01*
X82750000Y-113877750D02*
X82750000Y-113312250D01*
G75*
G02*
X82844250Y-113218000I94250J0D01*
G01*
X84329750Y-113218000D01*
G75*
G02*
X84424000Y-113312250I0J-94250D01*
G01*
X84424000Y-113877750D01*
G75*
G02*
X84329750Y-113972000I-94250J0D01*
G01*
X82844250Y-113972000D01*
G75*
G02*
X82750000Y-113877750I0J94250D01*
G01*
G37*
G36*
G01*
X82750000Y-114677750D02*
X82750000Y-114112250D01*
G75*
G02*
X82844250Y-114018000I94250J0D01*
G01*
X84329750Y-114018000D01*
G75*
G02*
X84424000Y-114112250I0J-94250D01*
G01*
X84424000Y-114677750D01*
G75*
G02*
X84329750Y-114772000I-94250J0D01*
G01*
X82844250Y-114772000D01*
G75*
G02*
X82750000Y-114677750I0J94250D01*
G01*
G37*
G36*
G01*
X82750000Y-115477750D02*
X82750000Y-114912250D01*
G75*
G02*
X82844250Y-114818000I94250J0D01*
G01*
X84329750Y-114818000D01*
G75*
G02*
X84424000Y-114912250I0J-94250D01*
G01*
X84424000Y-115477750D01*
G75*
G02*
X84329750Y-115572000I-94250J0D01*
G01*
X82844250Y-115572000D01*
G75*
G02*
X82750000Y-115477750I0J94250D01*
G01*
G37*
G36*
G01*
X84580000Y-117307750D02*
X84580000Y-115822250D01*
G75*
G02*
X84674250Y-115728000I94250J0D01*
G01*
X85239750Y-115728000D01*
G75*
G02*
X85334000Y-115822250I0J-94250D01*
G01*
X85334000Y-117307750D01*
G75*
G02*
X85239750Y-117402000I-94250J0D01*
G01*
X84674250Y-117402000D01*
G75*
G02*
X84580000Y-117307750I0J94250D01*
G01*
G37*
G36*
G01*
X85380000Y-117307750D02*
X85380000Y-115822250D01*
G75*
G02*
X85474250Y-115728000I94250J0D01*
G01*
X86039750Y-115728000D01*
G75*
G02*
X86134000Y-115822250I0J-94250D01*
G01*
X86134000Y-117307750D01*
G75*
G02*
X86039750Y-117402000I-94250J0D01*
G01*
X85474250Y-117402000D01*
G75*
G02*
X85380000Y-117307750I0J94250D01*
G01*
G37*
G36*
G01*
X86180000Y-117307750D02*
X86180000Y-115822250D01*
G75*
G02*
X86274250Y-115728000I94250J0D01*
G01*
X86839750Y-115728000D01*
G75*
G02*
X86934000Y-115822250I0J-94250D01*
G01*
X86934000Y-117307750D01*
G75*
G02*
X86839750Y-117402000I-94250J0D01*
G01*
X86274250Y-117402000D01*
G75*
G02*
X86180000Y-117307750I0J94250D01*
G01*
G37*
G36*
G01*
X86980000Y-117307750D02*
X86980000Y-115822250D01*
G75*
G02*
X87074250Y-115728000I94250J0D01*
G01*
X87639750Y-115728000D01*
G75*
G02*
X87734000Y-115822250I0J-94250D01*
G01*
X87734000Y-117307750D01*
G75*
G02*
X87639750Y-117402000I-94250J0D01*
G01*
X87074250Y-117402000D01*
G75*
G02*
X86980000Y-117307750I0J94250D01*
G01*
G37*
G36*
G01*
X87780000Y-117307750D02*
X87780000Y-115822250D01*
G75*
G02*
X87874250Y-115728000I94250J0D01*
G01*
X88439750Y-115728000D01*
G75*
G02*
X88534000Y-115822250I0J-94250D01*
G01*
X88534000Y-117307750D01*
G75*
G02*
X88439750Y-117402000I-94250J0D01*
G01*
X87874250Y-117402000D01*
G75*
G02*
X87780000Y-117307750I0J94250D01*
G01*
G37*
G36*
G01*
X88580000Y-117307750D02*
X88580000Y-115822250D01*
G75*
G02*
X88674250Y-115728000I94250J0D01*
G01*
X89239750Y-115728000D01*
G75*
G02*
X89334000Y-115822250I0J-94250D01*
G01*
X89334000Y-117307750D01*
G75*
G02*
X89239750Y-117402000I-94250J0D01*
G01*
X88674250Y-117402000D01*
G75*
G02*
X88580000Y-117307750I0J94250D01*
G01*
G37*
G36*
G01*
X89380000Y-117307750D02*
X89380000Y-115822250D01*
G75*
G02*
X89474250Y-115728000I94250J0D01*
G01*
X90039750Y-115728000D01*
G75*
G02*
X90134000Y-115822250I0J-94250D01*
G01*
X90134000Y-117307750D01*
G75*
G02*
X90039750Y-117402000I-94250J0D01*
G01*
X89474250Y-117402000D01*
G75*
G02*
X89380000Y-117307750I0J94250D01*
G01*
G37*
G36*
G01*
X90180000Y-117307750D02*
X90180000Y-115822250D01*
G75*
G02*
X90274250Y-115728000I94250J0D01*
G01*
X90839750Y-115728000D01*
G75*
G02*
X90934000Y-115822250I0J-94250D01*
G01*
X90934000Y-117307750D01*
G75*
G02*
X90839750Y-117402000I-94250J0D01*
G01*
X90274250Y-117402000D01*
G75*
G02*
X90180000Y-117307750I0J94250D01*
G01*
G37*
G36*
G01*
X91090000Y-115477750D02*
X91090000Y-114912250D01*
G75*
G02*
X91184250Y-114818000I94250J0D01*
G01*
X92669750Y-114818000D01*
G75*
G02*
X92764000Y-114912250I0J-94250D01*
G01*
X92764000Y-115477750D01*
G75*
G02*
X92669750Y-115572000I-94250J0D01*
G01*
X91184250Y-115572000D01*
G75*
G02*
X91090000Y-115477750I0J94250D01*
G01*
G37*
G36*
G01*
X91090000Y-114677750D02*
X91090000Y-114112250D01*
G75*
G02*
X91184250Y-114018000I94250J0D01*
G01*
X92669750Y-114018000D01*
G75*
G02*
X92764000Y-114112250I0J-94250D01*
G01*
X92764000Y-114677750D01*
G75*
G02*
X92669750Y-114772000I-94250J0D01*
G01*
X91184250Y-114772000D01*
G75*
G02*
X91090000Y-114677750I0J94250D01*
G01*
G37*
G36*
G01*
X91090000Y-113877750D02*
X91090000Y-113312250D01*
G75*
G02*
X91184250Y-113218000I94250J0D01*
G01*
X92669750Y-113218000D01*
G75*
G02*
X92764000Y-113312250I0J-94250D01*
G01*
X92764000Y-113877750D01*
G75*
G02*
X92669750Y-113972000I-94250J0D01*
G01*
X91184250Y-113972000D01*
G75*
G02*
X91090000Y-113877750I0J94250D01*
G01*
G37*
G36*
G01*
X91090000Y-113077750D02*
X91090000Y-112512250D01*
G75*
G02*
X91184250Y-112418000I94250J0D01*
G01*
X92669750Y-112418000D01*
G75*
G02*
X92764000Y-112512250I0J-94250D01*
G01*
X92764000Y-113077750D01*
G75*
G02*
X92669750Y-113172000I-94250J0D01*
G01*
X91184250Y-113172000D01*
G75*
G02*
X91090000Y-113077750I0J94250D01*
G01*
G37*
G36*
G01*
X91090000Y-112277750D02*
X91090000Y-111712250D01*
G75*
G02*
X91184250Y-111618000I94250J0D01*
G01*
X92669750Y-111618000D01*
G75*
G02*
X92764000Y-111712250I0J-94250D01*
G01*
X92764000Y-112277750D01*
G75*
G02*
X92669750Y-112372000I-94250J0D01*
G01*
X91184250Y-112372000D01*
G75*
G02*
X91090000Y-112277750I0J94250D01*
G01*
G37*
G36*
G01*
X91090000Y-111477750D02*
X91090000Y-110912250D01*
G75*
G02*
X91184250Y-110818000I94250J0D01*
G01*
X92669750Y-110818000D01*
G75*
G02*
X92764000Y-110912250I0J-94250D01*
G01*
X92764000Y-111477750D01*
G75*
G02*
X92669750Y-111572000I-94250J0D01*
G01*
X91184250Y-111572000D01*
G75*
G02*
X91090000Y-111477750I0J94250D01*
G01*
G37*
G36*
G01*
X91090000Y-110677750D02*
X91090000Y-110112250D01*
G75*
G02*
X91184250Y-110018000I94250J0D01*
G01*
X92669750Y-110018000D01*
G75*
G02*
X92764000Y-110112250I0J-94250D01*
G01*
X92764000Y-110677750D01*
G75*
G02*
X92669750Y-110772000I-94250J0D01*
G01*
X91184250Y-110772000D01*
G75*
G02*
X91090000Y-110677750I0J94250D01*
G01*
G37*
G36*
G01*
X91090000Y-109877750D02*
X91090000Y-109312250D01*
G75*
G02*
X91184250Y-109218000I94250J0D01*
G01*
X92669750Y-109218000D01*
G75*
G02*
X92764000Y-109312250I0J-94250D01*
G01*
X92764000Y-109877750D01*
G75*
G02*
X92669750Y-109972000I-94250J0D01*
G01*
X91184250Y-109972000D01*
G75*
G02*
X91090000Y-109877750I0J94250D01*
G01*
G37*
G36*
G01*
X90180000Y-108967750D02*
X90180000Y-107482250D01*
G75*
G02*
X90274250Y-107388000I94250J0D01*
G01*
X90839750Y-107388000D01*
G75*
G02*
X90934000Y-107482250I0J-94250D01*
G01*
X90934000Y-108967750D01*
G75*
G02*
X90839750Y-109062000I-94250J0D01*
G01*
X90274250Y-109062000D01*
G75*
G02*
X90180000Y-108967750I0J94250D01*
G01*
G37*
G36*
G01*
X89380000Y-108967750D02*
X89380000Y-107482250D01*
G75*
G02*
X89474250Y-107388000I94250J0D01*
G01*
X90039750Y-107388000D01*
G75*
G02*
X90134000Y-107482250I0J-94250D01*
G01*
X90134000Y-108967750D01*
G75*
G02*
X90039750Y-109062000I-94250J0D01*
G01*
X89474250Y-109062000D01*
G75*
G02*
X89380000Y-108967750I0J94250D01*
G01*
G37*
G36*
G01*
X88580000Y-108967750D02*
X88580000Y-107482250D01*
G75*
G02*
X88674250Y-107388000I94250J0D01*
G01*
X89239750Y-107388000D01*
G75*
G02*
X89334000Y-107482250I0J-94250D01*
G01*
X89334000Y-108967750D01*
G75*
G02*
X89239750Y-109062000I-94250J0D01*
G01*
X88674250Y-109062000D01*
G75*
G02*
X88580000Y-108967750I0J94250D01*
G01*
G37*
G36*
G01*
X87780000Y-108967750D02*
X87780000Y-107482250D01*
G75*
G02*
X87874250Y-107388000I94250J0D01*
G01*
X88439750Y-107388000D01*
G75*
G02*
X88534000Y-107482250I0J-94250D01*
G01*
X88534000Y-108967750D01*
G75*
G02*
X88439750Y-109062000I-94250J0D01*
G01*
X87874250Y-109062000D01*
G75*
G02*
X87780000Y-108967750I0J94250D01*
G01*
G37*
G36*
G01*
X86980000Y-108967750D02*
X86980000Y-107482250D01*
G75*
G02*
X87074250Y-107388000I94250J0D01*
G01*
X87639750Y-107388000D01*
G75*
G02*
X87734000Y-107482250I0J-94250D01*
G01*
X87734000Y-108967750D01*
G75*
G02*
X87639750Y-109062000I-94250J0D01*
G01*
X87074250Y-109062000D01*
G75*
G02*
X86980000Y-108967750I0J94250D01*
G01*
G37*
G36*
G01*
X86180000Y-108967750D02*
X86180000Y-107482250D01*
G75*
G02*
X86274250Y-107388000I94250J0D01*
G01*
X86839750Y-107388000D01*
G75*
G02*
X86934000Y-107482250I0J-94250D01*
G01*
X86934000Y-108967750D01*
G75*
G02*
X86839750Y-109062000I-94250J0D01*
G01*
X86274250Y-109062000D01*
G75*
G02*
X86180000Y-108967750I0J94250D01*
G01*
G37*
G36*
G01*
X85380000Y-108967750D02*
X85380000Y-107482250D01*
G75*
G02*
X85474250Y-107388000I94250J0D01*
G01*
X86039750Y-107388000D01*
G75*
G02*
X86134000Y-107482250I0J-94250D01*
G01*
X86134000Y-108967750D01*
G75*
G02*
X86039750Y-109062000I-94250J0D01*
G01*
X85474250Y-109062000D01*
G75*
G02*
X85380000Y-108967750I0J94250D01*
G01*
G37*
G36*
G01*
X84580000Y-108967750D02*
X84580000Y-107482250D01*
G75*
G02*
X84674250Y-107388000I94250J0D01*
G01*
X85239750Y-107388000D01*
G75*
G02*
X85334000Y-107482250I0J-94250D01*
G01*
X85334000Y-108967750D01*
G75*
G02*
X85239750Y-109062000I-94250J0D01*
G01*
X84674250Y-109062000D01*
G75*
G02*
X84580000Y-108967750I0J94250D01*
G01*
G37*
%TD*%
%TO.C,R6*%
G36*
G01*
X95603000Y-121227000D02*
X95603000Y-120327000D01*
G75*
G02*
X95853000Y-120077000I250000J0D01*
G01*
X96378000Y-120077000D01*
G75*
G02*
X96628000Y-120327000I0J-250000D01*
G01*
X96628000Y-121227000D01*
G75*
G02*
X96378000Y-121477000I-250000J0D01*
G01*
X95853000Y-121477000D01*
G75*
G02*
X95603000Y-121227000I0J250000D01*
G01*
G37*
G36*
G01*
X97428000Y-121227000D02*
X97428000Y-120327000D01*
G75*
G02*
X97678000Y-120077000I250000J0D01*
G01*
X98203000Y-120077000D01*
G75*
G02*
X98453000Y-120327000I0J-250000D01*
G01*
X98453000Y-121227000D01*
G75*
G02*
X98203000Y-121477000I-250000J0D01*
G01*
X97678000Y-121477000D01*
G75*
G02*
X97428000Y-121227000I0J250000D01*
G01*
G37*
%TD*%
D10*
%TO.C,H4*%
X104140000Y-131500000D03*
%TD*%
D12*
%TO.C,J4*%
X99441000Y-109601000D03*
D13*
X101981000Y-109601000D03*
X99441000Y-112141000D03*
X101981000Y-112141000D03*
X99441000Y-114681000D03*
X101981000Y-114681000D03*
%TD*%
%TO.C,C5*%
G36*
G01*
X83304000Y-100363000D02*
X83304000Y-101313000D01*
G75*
G02*
X83054000Y-101563000I-250000J0D01*
G01*
X82554000Y-101563000D01*
G75*
G02*
X82304000Y-101313000I0J250000D01*
G01*
X82304000Y-100363000D01*
G75*
G02*
X82554000Y-100113000I250000J0D01*
G01*
X83054000Y-100113000D01*
G75*
G02*
X83304000Y-100363000I0J-250000D01*
G01*
G37*
G36*
G01*
X81404000Y-100363000D02*
X81404000Y-101313000D01*
G75*
G02*
X81154000Y-101563000I-250000J0D01*
G01*
X80654000Y-101563000D01*
G75*
G02*
X80404000Y-101313000I0J250000D01*
G01*
X80404000Y-100363000D01*
G75*
G02*
X80654000Y-100113000I250000J0D01*
G01*
X81154000Y-100113000D01*
G75*
G02*
X81404000Y-100363000I0J-250000D01*
G01*
G37*
%TD*%
D12*
%TO.C,J1*%
X101727000Y-119761000D03*
D13*
X101727000Y-122301000D03*
X101727000Y-124841000D03*
X101727000Y-127381000D03*
%TD*%
%TO.C,D1*%
G36*
G01*
X98429500Y-122860750D02*
X98429500Y-123773250D01*
G75*
G02*
X98185750Y-124017000I-243750J0D01*
G01*
X97698250Y-124017000D01*
G75*
G02*
X97454500Y-123773250I0J243750D01*
G01*
X97454500Y-122860750D01*
G75*
G02*
X97698250Y-122617000I243750J0D01*
G01*
X98185750Y-122617000D01*
G75*
G02*
X98429500Y-122860750I0J-243750D01*
G01*
G37*
G36*
G01*
X96554500Y-122860750D02*
X96554500Y-123773250D01*
G75*
G02*
X96310750Y-124017000I-243750J0D01*
G01*
X95823250Y-124017000D01*
G75*
G02*
X95579500Y-123773250I0J243750D01*
G01*
X95579500Y-122860750D01*
G75*
G02*
X95823250Y-122617000I243750J0D01*
G01*
X96310750Y-122617000D01*
G75*
G02*
X96554500Y-122860750I0J-243750D01*
G01*
G37*
%TD*%
%TO.C,C1*%
G36*
G01*
X83238000Y-122588000D02*
X83238000Y-123538000D01*
G75*
G02*
X82988000Y-123788000I-250000J0D01*
G01*
X82488000Y-123788000D01*
G75*
G02*
X82238000Y-123538000I0J250000D01*
G01*
X82238000Y-122588000D01*
G75*
G02*
X82488000Y-122338000I250000J0D01*
G01*
X82988000Y-122338000D01*
G75*
G02*
X83238000Y-122588000I0J-250000D01*
G01*
G37*
G36*
G01*
X81338000Y-122588000D02*
X81338000Y-123538000D01*
G75*
G02*
X81088000Y-123788000I-250000J0D01*
G01*
X80588000Y-123788000D01*
G75*
G02*
X80338000Y-123538000I0J250000D01*
G01*
X80338000Y-122588000D01*
G75*
G02*
X80588000Y-122338000I250000J0D01*
G01*
X81088000Y-122338000D01*
G75*
G02*
X81338000Y-122588000I0J-250000D01*
G01*
G37*
%TD*%
D10*
%TO.C,H2*%
X65151000Y-132080000D03*
%TD*%
D12*
%TO.C,J3*%
X69977000Y-132080000D03*
D13*
X72517000Y-132080000D03*
X75057000Y-132080000D03*
X77597000Y-132080000D03*
X80137000Y-132080000D03*
X82677000Y-132080000D03*
X85217000Y-132080000D03*
X87757000Y-132080000D03*
X90297000Y-132080000D03*
%TD*%
%TO.C,C4*%
G36*
G01*
X91346000Y-124407000D02*
X92296000Y-124407000D01*
G75*
G02*
X92546000Y-124657000I0J-250000D01*
G01*
X92546000Y-125157000D01*
G75*
G02*
X92296000Y-125407000I-250000J0D01*
G01*
X91346000Y-125407000D01*
G75*
G02*
X91096000Y-125157000I0J250000D01*
G01*
X91096000Y-124657000D01*
G75*
G02*
X91346000Y-124407000I250000J0D01*
G01*
G37*
G36*
G01*
X91346000Y-126307000D02*
X92296000Y-126307000D01*
G75*
G02*
X92546000Y-126557000I0J-250000D01*
G01*
X92546000Y-127057000D01*
G75*
G02*
X92296000Y-127307000I-250000J0D01*
G01*
X91346000Y-127307000D01*
G75*
G02*
X91096000Y-127057000I0J250000D01*
G01*
X91096000Y-126557000D01*
G75*
G02*
X91346000Y-126307000I250000J0D01*
G01*
G37*
%TD*%
D12*
%TO.C,J2*%
X98298000Y-101219000D03*
D13*
X95758000Y-101219000D03*
X93218000Y-101219000D03*
X90678000Y-101219000D03*
%TD*%
D10*
%TO.C,H1*%
X65405000Y-101727000D03*
%TD*%
D12*
%TO.C,BT1*%
X66167000Y-112141000D03*
D13*
X66167000Y-114681000D03*
%TD*%
%TO.C,R4*%
G36*
G01*
X83443500Y-126042000D02*
X83443500Y-126942000D01*
G75*
G02*
X83193500Y-127192000I-250000J0D01*
G01*
X82668500Y-127192000D01*
G75*
G02*
X82418500Y-126942000I0J250000D01*
G01*
X82418500Y-126042000D01*
G75*
G02*
X82668500Y-125792000I250000J0D01*
G01*
X83193500Y-125792000D01*
G75*
G02*
X83443500Y-126042000I0J-250000D01*
G01*
G37*
G36*
G01*
X81618500Y-126042000D02*
X81618500Y-126942000D01*
G75*
G02*
X81368500Y-127192000I-250000J0D01*
G01*
X80843500Y-127192000D01*
G75*
G02*
X80593500Y-126942000I0J250000D01*
G01*
X80593500Y-126042000D01*
G75*
G02*
X80843500Y-125792000I250000J0D01*
G01*
X81368500Y-125792000D01*
G75*
G02*
X81618500Y-126042000I0J-250000D01*
G01*
G37*
%TD*%
%TO.C,C3*%
G36*
G01*
X88994000Y-127307000D02*
X88044000Y-127307000D01*
G75*
G02*
X87794000Y-127057000I0J250000D01*
G01*
X87794000Y-126557000D01*
G75*
G02*
X88044000Y-126307000I250000J0D01*
G01*
X88994000Y-126307000D01*
G75*
G02*
X89244000Y-126557000I0J-250000D01*
G01*
X89244000Y-127057000D01*
G75*
G02*
X88994000Y-127307000I-250000J0D01*
G01*
G37*
G36*
G01*
X88994000Y-125407000D02*
X88044000Y-125407000D01*
G75*
G02*
X87794000Y-125157000I0J250000D01*
G01*
X87794000Y-124657000D01*
G75*
G02*
X88044000Y-124407000I250000J0D01*
G01*
X88994000Y-124407000D01*
G75*
G02*
X89244000Y-124657000I0J-250000D01*
G01*
X89244000Y-125157000D01*
G75*
G02*
X88994000Y-125407000I-250000J0D01*
G01*
G37*
%TD*%
%TO.C,R1*%
G36*
G01*
X94008000Y-103944000D02*
X94008000Y-104844000D01*
G75*
G02*
X93758000Y-105094000I-250000J0D01*
G01*
X93233000Y-105094000D01*
G75*
G02*
X92983000Y-104844000I0J250000D01*
G01*
X92983000Y-103944000D01*
G75*
G02*
X93233000Y-103694000I250000J0D01*
G01*
X93758000Y-103694000D01*
G75*
G02*
X94008000Y-103944000I0J-250000D01*
G01*
G37*
G36*
G01*
X92183000Y-103944000D02*
X92183000Y-104844000D01*
G75*
G02*
X91933000Y-105094000I-250000J0D01*
G01*
X91408000Y-105094000D01*
G75*
G02*
X91158000Y-104844000I0J250000D01*
G01*
X91158000Y-103944000D01*
G75*
G02*
X91408000Y-103694000I250000J0D01*
G01*
X91933000Y-103694000D01*
G75*
G02*
X92183000Y-103944000I0J-250000D01*
G01*
G37*
%TD*%
%TO.C,R3*%
G36*
G01*
X95706500Y-126307000D02*
X95706500Y-125407000D01*
G75*
G02*
X95956500Y-125157000I250000J0D01*
G01*
X96481500Y-125157000D01*
G75*
G02*
X96731500Y-125407000I0J-250000D01*
G01*
X96731500Y-126307000D01*
G75*
G02*
X96481500Y-126557000I-250000J0D01*
G01*
X95956500Y-126557000D01*
G75*
G02*
X95706500Y-126307000I0J250000D01*
G01*
G37*
G36*
G01*
X97531500Y-126307000D02*
X97531500Y-125407000D01*
G75*
G02*
X97781500Y-125157000I250000J0D01*
G01*
X98306500Y-125157000D01*
G75*
G02*
X98556500Y-125407000I0J-250000D01*
G01*
X98556500Y-126307000D01*
G75*
G02*
X98306500Y-126557000I-250000J0D01*
G01*
X97781500Y-126557000D01*
G75*
G02*
X97531500Y-126307000I0J250000D01*
G01*
G37*
%TD*%
%TO.C,U2*%
G36*
G01*
X69733000Y-112541000D02*
X69733000Y-111233000D01*
G75*
G02*
X69835000Y-111131000I102000J0D01*
G01*
X71143000Y-111131000D01*
G75*
G02*
X71245000Y-111233000I0J-102000D01*
G01*
X71245000Y-112541000D01*
G75*
G02*
X71143000Y-112643000I-102000J0D01*
G01*
X69835000Y-112643000D01*
G75*
G02*
X69733000Y-112541000I0J102000D01*
G01*
G37*
D11*
X70489000Y-114427000D03*
X70489000Y-116967000D03*
X70489000Y-119507000D03*
X78359000Y-119507000D03*
X78359000Y-116967000D03*
X78359000Y-114427000D03*
X78359000Y-111887000D03*
%TD*%
%TO.C,Y1*%
G36*
G01*
X66608999Y-127921000D02*
X64709001Y-127921000D01*
G75*
G02*
X64459000Y-127670999I0J250001D01*
G01*
X64459000Y-124671001D01*
G75*
G02*
X64709001Y-124421000I250001J0D01*
G01*
X66608999Y-124421000D01*
G75*
G02*
X66859000Y-124671001I0J-250001D01*
G01*
X66859000Y-127670999D01*
G75*
G02*
X66608999Y-127921000I-250001J0D01*
G01*
G37*
G36*
G01*
X66608999Y-122721000D02*
X64709001Y-122721000D01*
G75*
G02*
X64459000Y-122470999I0J250001D01*
G01*
X64459000Y-119471001D01*
G75*
G02*
X64709001Y-119221000I250001J0D01*
G01*
X66608999Y-119221000D01*
G75*
G02*
X66859000Y-119471001I0J-250001D01*
G01*
X66859000Y-122470999D01*
G75*
G02*
X66608999Y-122721000I-250001J0D01*
G01*
G37*
%TD*%
%TO.C,D2*%
G36*
G01*
X83340000Y-104191750D02*
X83340000Y-105104250D01*
G75*
G02*
X83096250Y-105348000I-243750J0D01*
G01*
X82608750Y-105348000D01*
G75*
G02*
X82365000Y-105104250I0J243750D01*
G01*
X82365000Y-104191750D01*
G75*
G02*
X82608750Y-103948000I243750J0D01*
G01*
X83096250Y-103948000D01*
G75*
G02*
X83340000Y-104191750I0J-243750D01*
G01*
G37*
G36*
G01*
X81465000Y-104191750D02*
X81465000Y-105104250D01*
G75*
G02*
X81221250Y-105348000I-243750J0D01*
G01*
X80733750Y-105348000D01*
G75*
G02*
X80490000Y-105104250I0J243750D01*
G01*
X80490000Y-104191750D01*
G75*
G02*
X80733750Y-103948000I243750J0D01*
G01*
X81221250Y-103948000D01*
G75*
G02*
X81465000Y-104191750I0J-243750D01*
G01*
G37*
%TD*%
%TO.C,R5*%
G36*
G01*
X69273000Y-123289000D02*
X70173000Y-123289000D01*
G75*
G02*
X70423000Y-123539000I0J-250000D01*
G01*
X70423000Y-124064000D01*
G75*
G02*
X70173000Y-124314000I-250000J0D01*
G01*
X69273000Y-124314000D01*
G75*
G02*
X69023000Y-124064000I0J250000D01*
G01*
X69023000Y-123539000D01*
G75*
G02*
X69273000Y-123289000I250000J0D01*
G01*
G37*
G36*
G01*
X69273000Y-125114000D02*
X70173000Y-125114000D01*
G75*
G02*
X70423000Y-125364000I0J-250000D01*
G01*
X70423000Y-125889000D01*
G75*
G02*
X70173000Y-126139000I-250000J0D01*
G01*
X69273000Y-126139000D01*
G75*
G02*
X69023000Y-125889000I0J250000D01*
G01*
X69023000Y-125364000D01*
G75*
G02*
X69273000Y-125114000I250000J0D01*
G01*
G37*
%TD*%
M02*
