%TF.GenerationSoftware,KiCad,Pcbnew,9.0.4*%
%TF.CreationDate,2025-11-20T06:57:18+02:00*%
%TF.ProjectId,test_5,74657374-5f35-42e6-9b69-6361645f7063,rev?*%
%TF.SameCoordinates,Original*%
%TF.FileFunction,Soldermask,Bot*%
%TF.FilePolarity,Negative*%
%FSLAX46Y46*%
G04 Gerber Fmt 4.6, Leading zero omitted, Abs format (unit mm)*
G04 Created by KiCad (PCBNEW 9.0.4) date 2025-11-20 06:57:18*
%MOMM*%
%LPD*%
G01*
G04 APERTURE LIST*
%ADD10C,2.100000*%
%ADD11C,1.512000*%
%ADD12R,1.700000X1.700000*%
%ADD13C,1.700000*%
G04 APERTURE END LIST*
D10*
%TO.C,H3*%
X104267000Y-101346000D03*
%TD*%
%TO.C,U1*%
G36*
G01*
X69860000Y-101492000D02*
X69860000Y-100184000D01*
G75*
G02*
X69962000Y-100082000I102000J0D01*
G01*
X71270000Y-100082000D01*
G75*
G02*
X71372000Y-100184000I0J-102000D01*
G01*
X71372000Y-101492000D01*
G75*
G02*
X71270000Y-101594000I-102000J0D01*
G01*
X69962000Y-101594000D01*
G75*
G02*
X69860000Y-101492000I0J102000D01*
G01*
G37*
D11*
X70616000Y-103378000D03*
X70616000Y-105918000D03*
X70616000Y-108458000D03*
X78486000Y-108458000D03*
X78486000Y-105918000D03*
X78486000Y-103378000D03*
X78486000Y-100838000D03*
%TD*%
D10*
%TO.C,H4*%
X104140000Y-131500000D03*
%TD*%
D12*
%TO.C,J4*%
X99441000Y-109601000D03*
D13*
X101981000Y-109601000D03*
X99441000Y-112141000D03*
X101981000Y-112141000D03*
X99441000Y-114681000D03*
X101981000Y-114681000D03*
%TD*%
D12*
%TO.C,J1*%
X101727000Y-119761000D03*
D13*
X101727000Y-122301000D03*
X101727000Y-124841000D03*
X101727000Y-127381000D03*
%TD*%
D10*
%TO.C,H2*%
X65151000Y-132080000D03*
%TD*%
D12*
%TO.C,J3*%
X69977000Y-132080000D03*
D13*
X72517000Y-132080000D03*
X75057000Y-132080000D03*
X77597000Y-132080000D03*
X80137000Y-132080000D03*
X82677000Y-132080000D03*
X85217000Y-132080000D03*
X87757000Y-132080000D03*
X90297000Y-132080000D03*
%TD*%
D12*
%TO.C,J2*%
X98298000Y-101219000D03*
D13*
X95758000Y-101219000D03*
X93218000Y-101219000D03*
X90678000Y-101219000D03*
%TD*%
D10*
%TO.C,H1*%
X65405000Y-101727000D03*
%TD*%
D12*
%TO.C,BT1*%
X66167000Y-112141000D03*
D13*
X66167000Y-114681000D03*
%TD*%
%TO.C,U2*%
G36*
G01*
X69733000Y-112541000D02*
X69733000Y-111233000D01*
G75*
G02*
X69835000Y-111131000I102000J0D01*
G01*
X71143000Y-111131000D01*
G75*
G02*
X71245000Y-111233000I0J-102000D01*
G01*
X71245000Y-112541000D01*
G75*
G02*
X71143000Y-112643000I-102000J0D01*
G01*
X69835000Y-112643000D01*
G75*
G02*
X69733000Y-112541000I0J102000D01*
G01*
G37*
D11*
X70489000Y-114427000D03*
X70489000Y-116967000D03*
X70489000Y-119507000D03*
X78359000Y-119507000D03*
X78359000Y-116967000D03*
X78359000Y-114427000D03*
X78359000Y-111887000D03*
%TD*%
M02*
